<?xml version="1.0" encoding="UTF-8" standalone="no"?><svg xmlns="http://www.w3.org/2000/svg" xmlns:xlink="http://www.w3.org/1999/xlink" fill="#000000" height="147" preserveAspectRatio="xMidYMid meet" version="1" viewBox="0.0 0.0 147.0 147.0" width="147" zoomAndPan="magnify"><g><g id="change1_1"><circle cx="71.5" cy="71.5" fill="#85b4f0" r="71.5"/></g><g id="change2_1"><circle cx="75.5" cy="75.5" fill="#fe2b54" r="71.5"/></g><g id="change3_1"><circle cx="73.5" cy="73.5" fill="#85b4f0" r="71.5"/></g></g><g><g id="change1_2"><path d="M93.1,35.5c1.6-0.3,3.1,0.9,3.1,2.5v52.8c0,5.7-5.2,8.2-5.2,8.2c-8.2,3.5-11.9,0.8-13.9-1.7 c-2-2.5-1.4-6.5-1.4-6.5c1-7.8,12.9-7.9,12.9-7.9c3.3-0.4,3.6-3.2,3.6-3.2V55.3c0-1.3-1.2-2.3-2.5-2l-28.1,5.6c-1,0.2-1.6,1-1.6,2 v37.3c0,5.7-5.2,8.2-5.2,8.2c-8.2,3.5-11.9,0.8-13.9-1.7c-2-2.5-1.4-6.5-1.4-6.5c1-7.8,12.9-7.9,12.9-7.9c3.3-0.4,3.6-3.2,3.6-3.2 V45.8c0-1.6,1.2-3,2.8-3.4L93.1,35.5z" fill="#85b4f0"/></g><g id="change4_1"><path d="M96.6,39c1.6-0.3,3.1,0.9,3.1,2.5v52.8c0,5.7-5.2,8.2-5.2,8.2c-8.2,3.5-11.9,0.8-13.9-1.7 c-2-2.5-1.4-6.5-1.4-6.5c1-7.8,12.9-7.9,12.9-7.9c3.3-0.4,3.6-3.2,3.6-3.2V58.8c0-1.3-1.2-2.3-2.5-2l-28.1,5.6c-1,0.2-1.6,1-1.6,2 v37.3c0,5.7-5.2,8.2-5.2,8.2c-8.2,3.5-11.9,0.8-13.9-1.7c-2-2.5-1.4-6.5-1.4-6.5c1-7.8,12.9-7.9,12.9-7.9c3.3-0.4,3.6-3.2,3.6-3.2 V49.3c0-1.6,1.2-3,2.8-3.4L96.6,39z" fill="#f23358"/></g><g id="change5_1"><path d="M94.8,37.3c1.6-0.3,3.1,0.9,3.1,2.5v52.8c0,5.7-5.2,8.2-5.2,8.2c-8.2,3.5-11.9,0.8-13.9-1.7 c-2-2.5-1.4-6.5-1.4-6.5c1-7.8,12.9-7.9,12.9-7.9c3.3-0.4,3.6-3.2,3.6-3.2V57c0-1.3-1.2-2.3-2.5-2l-28.1,5.6c-1,0.2-1.6,1-1.6,2 v37.3c0,5.7-5.2,8.2-5.2,8.2c-8.2,3.5-11.9,0.8-13.9-1.7c-2-2.5-1.4-6.5-1.4-6.5c1-7.8,12.9-7.9,12.9-7.9c3.3-0.4,3.6-3.2,3.6-3.2 V47.6c0-1.6,1.2-3,2.8-3.4L94.8,37.3z" fill="#ffffff"/></g></g></svg>