<?xml version="1.0" encoding="UTF-8"?><svg xmlns="http://www.w3.org/2000/svg" xmlns:xlink="http://www.w3.org/1999/xlink" height="995.1" preserveAspectRatio="xMidYMid meet" version="1.0" viewBox="0.0 0.0 617.8 995.1" width="617.8" zoomAndPan="magnify"><g><g><g id="change1_1"><path d="M617.76 807.93L573.28 763.48 363.4 617.5 356.58 698.53 308.73 700.57 371.68 62.06 309.59 0 40.22 100.49 47.12 859.68 84.61 897.1 330.78 920.6 289.63 965.61 319.23 995.11z" fill="#12121a"/></g><g id="change2_23"><path d="M362.95 837.45L468.25 762.4 375.48 693.34 373.45 717.48 209.2 725.49 243.64 75.86 64.93 110.66 105.67 801.25 364.74 816.86z" fill="#fff"/></g><g id="change3_1"><path d="M573.28,763.48l-250.1-186.17l-6.82,81.03l-41.77,2.04L309.59,0L0,60.3l47.16,799.38l250.45,15.09 l-7.91,90.84L573.28,763.48z M243.64,75.86L209.2,725.49l164.25-8.02l2.03-24.13l92.76,69.05l-105.3,75.06l1.79-20.6 l-259.07-15.61L64.93,110.66L243.64,75.86z" fill="#d91633"/></g><g id="change4_1"><path d="M355.97,849.66l122.28-87.16L370.5,682.29l-2.49,29.55l-152.58,7.45l34.49-650.66L58.74,105.87l41.35,700.95 l258.25,15.56L355.97,849.66z M105.67,801.25L64.93,110.66l178.71-34.81L209.2,725.49l164.25-8.02l2.03-24.13l92.76,69.05 l-105.3,75.06l1.79-20.6L105.67,801.25z" fill="#ccc"/></g><g id="change5_1"><path d="M573.28,763.48l-250.1-186.17l-6.82,81.03l-41.77,2.04L309.59,0L0,60.3l47.16,799.38l250.45,15.09 l-7.91,90.84L573.28,763.48z M52.73,854.11L6.18,65.1L303.31,7.22l-34.95,659.36l53.44-2.61l6.36-75.61l235.12,175.02 L296.68,953.4l7.33-84.15L52.73,854.11z" fill="#f2836f"/></g><g fill="#12121a" id="change1_2"><path d="M375.48 693.35L373.45 717.48 209.23 725.49 219.51 735.8 383.76 727.79 385.79 703.65 466.44 763.69 468.25 762.4z"/><path d="M362.95 837.45L374.89 828.94 375.05 827.17 364.74 816.81z"/><path d="M242.98 88.3L243.64 75.86 64.93 110.66 105.67 801.25 115.4 801.83 75.24 120.97z"/></g></g><g><g><g id="change6_7"><path d="M108.42,75.84c-2.37,7.07-10.02,10.91-17.1,8.56c-7.08-2.34-10.9-9.98-8.53-17.05 c2.37-7.07,10.02-10.91,17.1-8.56C106.97,61.13,110.79,68.76,108.42,75.84z" fill="#a6112f"/></g><g id="change7_7"><path d="M107.12,75.41c-2.13,6.35-9,9.8-15.36,7.69C85.4,81,81.97,74.14,84.1,67.78c2.13-6.35,9-9.8,15.36-7.69 C105.82,62.19,109.25,69.05,107.12,75.41z" fill="#ffd12b"/></g><g id="change8_7"><path d="M104.18,74.43c-1.58,4.73-6.7,7.3-11.44,5.73c-4.73-1.57-7.29-6.67-5.71-11.41s6.7-7.3,11.44-5.73 C103.21,64.59,105.77,69.7,104.18,74.43z" fill="#fff2bd"/></g><g id="change2_9"><path d="M95.2,77.85c-0.09,0-0.19,0-0.28-0.01c-0.61-0.03-1.09-0.54-1.06-1.16c0.03-0.61,0.6-1.1,1.16-1.06 c2.35,0.15,4.35-1.73,4.46-4.08c0.03-0.61,0.55-1.09,1.16-1.06c0.61,0.03,1.09,0.55,1.06,1.16 C101.54,75.12,98.65,77.85,95.2,77.85z" fill="#fff"/></g></g><g><g id="change6_2"><path d="M169.86,63.95c-2.37,7.07-10.02,10.91-17.1,8.56c-7.08-2.34-10.9-9.98-8.53-17.05 c2.37-7.07,10.02-10.91,17.1-8.56C168.4,49.25,172.22,56.88,169.86,63.95z" fill="#a6112f"/></g><g id="change7_2"><path d="M168.56,63.52c-2.13,6.35-9,9.8-15.36,7.69c-6.36-2.11-9.79-8.96-7.66-15.32s9-9.8,15.36-7.69 C167.25,50.31,170.68,57.17,168.56,63.52z" fill="#ffd12b"/></g><g id="change8_2"><path d="M165.62,62.55c-1.58,4.73-6.7,7.3-11.44,5.73c-4.73-1.57-7.29-6.67-5.71-11.41c1.58-4.73,6.7-7.3,11.44-5.73 C164.65,52.71,167.2,57.82,165.62,62.55z" fill="#fff2bd"/></g><g id="change2_3"><path d="M156.64,65.97c-0.09,0-0.19,0-0.28-0.01c-0.61-0.03-1.09-0.54-1.06-1.16c0.03-0.61,0.6-1.1,1.16-1.06 c2.35,0.15,4.35-1.73,4.46-4.08c0.03-0.61,0.55-1.09,1.16-1.06c0.61,0.03,1.09,0.55,1.06,1.16 C162.97,63.24,160.09,65.97,156.64,65.97z" fill="#fff"/></g></g><g><g id="change6_5"><path d="M231.29,52.07c-2.37,7.07-10.02,10.91-17.1,8.56c-7.08-2.34-10.9-9.98-8.53-17.05 c2.37-7.07,10.02-10.91,17.1-8.56C229.84,37.37,233.66,45,231.29,52.07z" fill="#a6112f"/></g><g id="change7_5"><path d="M229.99,51.64c-2.13,6.35-9,9.8-15.36,7.69c-6.36-2.11-9.79-8.96-7.66-15.32c2.13-6.35,9-9.8,15.36-7.69 C228.69,38.43,232.12,45.29,229.99,51.64z" fill="#ffd12b"/></g><g id="change8_5"><path d="M227.05,50.67c-1.58,4.73-6.7,7.3-11.44,5.73c-4.73-1.57-7.29-6.67-5.71-11.41c1.58-4.73,6.7-7.3,11.44-5.73 C226.08,40.83,228.64,45.93,227.05,50.67z" fill="#fff2bd"/></g><g id="change2_7"><path d="M218.07,54.09c-0.09,0-0.19,0-0.28-0.01c-0.61-0.03-1.09-0.54-1.06-1.16c0.03-0.61,0.6-1.1,1.16-1.06 c2.35,0.15,4.35-1.73,4.46-4.08c0.03-0.61,0.55-1.09,1.16-1.06c0.61,0.03,1.09,0.55,1.06,1.16 C224.41,51.36,221.52,54.09,218.07,54.09z" fill="#fff"/></g></g><g><g id="change6_8"><path d="M292.73,40.19c-2.37,7.07-10.02,10.91-17.1,8.56c-7.08-2.34-10.9-9.98-8.53-17.05s10.02-10.91,17.1-8.56 C291.27,25.48,295.09,33.12,292.73,40.19z" fill="#a6112f"/></g><g id="change7_8"><path d="M291.43,39.76c-2.13,6.35-9,9.8-15.36,7.69c-6.36-2.11-9.79-8.96-7.66-15.32c2.13-6.35,9-9.8,15.36-7.69 C290.12,26.55,293.55,33.4,291.43,39.76z" fill="#ffd12b"/></g><g id="change8_8"><path d="M288.49,38.78c-1.58,4.73-6.7,7.3-11.44,5.73c-4.73-1.57-7.29-6.67-5.71-11.41c1.58-4.73,6.7-7.3,11.44-5.73 C287.51,28.95,290.07,34.05,288.49,38.78z" fill="#fff2bd"/></g><g id="change2_10"><path d="M279.51,42.21c-0.09,0-0.19,0-0.28-0.01c-0.61-0.03-1.09-0.54-1.06-1.16c0.03-0.61,0.6-1.1,1.16-1.06 c2.35,0.15,4.35-1.73,4.46-4.08c0.03-0.61,0.55-1.09,1.16-1.06c0.61,0.03,1.09,0.55,1.06,1.16 C285.84,39.48,282.96,42.21,279.51,42.21z" fill="#fff"/></g></g><g><g id="change6_10"><path d="M289.43,99.95c-2.37,7.07-10.02,10.91-17.1,8.56c-7.08-2.34-10.9-9.98-8.53-17.05 c2.37-7.07,10.02-10.91,17.1-8.56C287.98,85.24,291.79,92.87,289.43,99.95z" fill="#a6112f"/></g><g id="change7_10"><path d="M288.13,99.52c-2.13,6.35-9,9.8-15.36,7.69c-6.36-2.11-9.79-8.96-7.66-15.32c2.13-6.35,9-9.8,15.36-7.69 C286.82,86.3,290.25,93.16,288.13,99.52z" fill="#ffd12b"/></g><g id="change8_10"><path d="M285.19,98.54c-1.58,4.73-6.7,7.3-11.44,5.73c-4.73-1.57-7.29-6.67-5.71-11.41c1.58-4.73,6.7-7.3,11.44-5.73 C284.22,88.7,286.77,93.81,285.19,98.54z" fill="#fff2bd"/></g><g id="change2_12"><path d="M276.21,101.96c-0.09,0-0.19,0-0.28-0.01c-0.61-0.03-1.09-0.54-1.06-1.16c0.03-0.61,0.6-1.1,1.16-1.06 c2.35,0.15,4.35-1.73,4.46-4.08c0.03-0.61,0.55-1.09,1.16-1.06c0.61,0.03,1.09,0.55,1.06,1.16 C282.54,99.23,279.66,101.96,276.21,101.96z" fill="#fff"/></g></g><g><g id="change6_6"><path d="M286.13,159.7c-2.37,7.07-10.02,10.91-17.1,8.56c-7.08-2.34-10.9-9.98-8.53-17.05 c2.37-7.07,10.02-10.91,17.1-8.56C284.68,145,288.5,152.63,286.13,159.7z" fill="#a6112f"/></g><g id="change7_6"><path d="M284.83,159.27c-2.13,6.35-9,9.8-15.36,7.69c-6.36-2.11-9.79-8.96-7.66-15.32c2.13-6.35,9-9.8,15.36-7.69 C283.53,146.06,286.96,152.92,284.83,159.27z" fill="#ffd12b"/></g><g id="change8_6"><path d="M281.89,158.3c-1.58,4.73-6.7,7.3-11.44,5.73c-4.73-1.57-7.29-6.67-5.71-11.41c1.58-4.73,6.7-7.3,11.44-5.73 C280.92,148.46,283.47,153.57,281.89,158.3z" fill="#fff2bd"/></g><g id="change2_8"><path d="M272.91,161.72c-0.09,0-0.19,0-0.28-0.01c-0.61-0.03-1.09-0.54-1.06-1.16c0.03-0.61,0.6-1.1,1.16-1.06 c2.35,0.14,4.35-1.73,4.46-4.08c0.03-0.61,0.55-1.09,1.16-1.06c0.61,0.03,1.09,0.55,1.06,1.16 C279.25,158.99,276.36,161.72,272.91,161.72z" fill="#fff"/></g></g><g><g id="change6_32"><path d="M282.83,219.46c-2.37,7.07-10.02,10.91-17.1,8.56c-7.08-2.34-10.9-9.98-8.53-17.05 c2.37-7.07,10.02-10.91,17.1-8.56C281.38,204.76,285.2,212.39,282.83,219.46z" fill="#a6112f"/></g><g id="change7_32"><path d="M281.53,219.03c-2.13,6.35-9,9.8-15.36,7.69c-6.36-2.11-9.79-8.96-7.66-15.32c2.13-6.35,9-9.8,15.36-7.69 C280.23,205.82,283.66,212.68,281.53,219.03z" fill="#ffd12b"/></g><g id="change8_32"><path d="M278.59,218.06c-1.58,4.73-6.7,7.3-11.44,5.73c-4.73-1.57-7.29-6.67-5.71-11.41 c1.58-4.73,6.7-7.3,11.44-5.73S280.18,213.33,278.59,218.06z" fill="#fff2bd"/></g><g id="change2_34"><path d="M269.61,221.48c-0.09,0-0.19,0-0.28-0.01c-0.61-0.03-1.09-0.54-1.06-1.16c0.03-0.61,0.6-1.1,1.16-1.06 c2.35,0.15,4.35-1.73,4.46-4.08c0.03-0.61,0.55-1.09,1.16-1.06c0.61,0.03,1.09,0.55,1.06,1.16 C275.95,218.75,273.06,221.48,269.61,221.48z" fill="#fff"/></g></g><g><g id="change6_36"><path d="M279.54,279.22c-2.37,7.07-10.02,10.91-17.1,8.56c-7.08-2.34-10.9-9.98-8.53-17.05 c2.37-7.07,10.02-10.91,17.1-8.56C278.08,264.51,281.9,272.15,279.54,279.22z" fill="#a6112f"/></g><g id="change7_36"><path d="M278.23,278.79c-2.13,6.35-9,9.8-15.36,7.69c-6.36-2.11-9.79-8.96-7.66-15.32c2.13-6.35,9-9.8,15.36-7.69 C276.93,265.58,280.36,272.44,278.23,278.79z" fill="#ffd12b"/></g><g id="change8_36"><path d="M275.3,277.82c-1.58,4.73-6.7,7.3-11.44,5.73c-4.73-1.57-7.29-6.67-5.71-11.41s6.7-7.3,11.44-5.73 C274.32,267.98,276.88,273.08,275.3,277.82z" fill="#fff2bd"/></g><g id="change2_37"><path d="M266.32,281.24c-0.09,0-0.19,0-0.28-0.01c-0.61-0.03-1.09-0.54-1.06-1.16c0.03-0.61,0.6-1.1,1.16-1.06 c2.35,0.15,4.35-1.73,4.46-4.08c0.03-0.61,0.55-1.09,1.16-1.06c0.61,0.03,1.09,0.55,1.06,1.16 C272.65,278.51,269.76,281.24,266.32,281.24z" fill="#fff"/></g></g><g><g id="change6_19"><path d="M276.24,338.98c-2.37,7.07-10.02,10.91-17.1,8.56c-7.08-2.34-10.9-9.98-8.53-17.05 c2.37-7.07,10.02-10.91,17.1-8.56C274.78,324.27,278.6,331.91,276.24,338.98z" fill="#a6112f"/></g><g id="change7_19"><path d="M274.94,338.55c-2.13,6.35-9,9.8-15.36,7.69c-6.36-2.11-9.79-8.96-7.66-15.32s9-9.8,15.36-7.69 C273.63,325.34,277.06,332.19,274.94,338.55z" fill="#ffd12b"/></g><g id="change8_19"><path d="M272,337.57c-1.58,4.73-6.7,7.3-11.44,5.73c-4.73-1.57-7.29-6.67-5.71-11.41c1.58-4.73,6.7-7.3,11.44-5.73 C271.03,327.74,273.58,332.84,272,337.57z" fill="#fff2bd"/></g><g id="change2_20"><path d="M263.02,341c-0.09,0-0.19,0-0.28-0.01c-0.61-0.03-1.09-0.54-1.06-1.16c0.03-0.61,0.6-1.1,1.16-1.06 c2.35,0.15,4.35-1.73,4.46-4.08c0.03-0.61,0.55-1.09,1.16-1.06c0.61,0.03,1.09,0.55,1.06,1.16 C269.35,338.27,266.47,341,263.02,341z" fill="#fff"/></g></g><g><g id="change6_20"><path d="M272.94,398.74c-2.37,7.07-10.02,10.91-17.1,8.56c-7.08-2.34-10.9-9.98-8.53-17.05 c2.37-7.07,10.02-10.91,17.1-8.56C271.49,384.03,275.31,391.66,272.94,398.74z" fill="#a6112f"/></g><g id="change7_20"><path d="M271.64,398.31c-2.13,6.35-9,9.8-15.36,7.69c-6.36-2.11-9.79-8.96-7.66-15.32s9-9.8,15.36-7.69 C270.33,385.09,273.76,391.95,271.64,398.31z" fill="#ffd12b"/></g><g id="change8_20"><path d="M268.7,397.33c-1.58,4.73-6.7,7.3-11.44,5.73c-4.73-1.57-7.29-6.67-5.71-11.41c1.58-4.73,6.7-7.3,11.44-5.73 C267.73,387.49,270.28,392.6,268.7,397.33z" fill="#fff2bd"/></g><g id="change2_21"><path d="M259.72,400.75c-0.09,0-0.19,0-0.28-0.01c-0.61-0.03-1.09-0.54-1.06-1.16c0.03-0.61,0.6-1.1,1.16-1.06 c2.35,0.15,4.35-1.73,4.46-4.08c0.03-0.61,0.55-1.09,1.16-1.06c0.61,0.03,1.09,0.55,1.06,1.16 C266.05,398.02,263.17,400.75,259.72,400.75z" fill="#fff"/></g></g><g><g id="change6_13"><path d="M269.64,458.49c-2.37,7.07-10.02,10.91-17.1,8.56c-7.08-2.34-10.9-9.98-8.53-17.05 c2.37-7.07,10.02-10.91,17.1-8.56C268.19,443.79,272.01,451.42,269.64,458.49z" fill="#a6112f"/></g><g id="change7_13"><path d="M268.34,458.06c-2.13,6.35-9,9.8-15.36,7.69c-6.36-2.11-9.79-8.96-7.66-15.32c2.13-6.35,9-9.8,15.36-7.69 C267.04,444.85,270.47,451.71,268.34,458.06z" fill="#ffd12b"/></g><g id="change8_13"><path d="M265.4,457.09c-1.58,4.73-6.7,7.3-11.44,5.73c-4.73-1.57-7.29-6.67-5.71-11.41c1.58-4.73,6.7-7.3,11.44-5.73 S266.98,452.36,265.4,457.09z" fill="#fff2bd"/></g><g id="change2_14"><path d="M256.42,460.51c-0.09,0-0.19,0-0.28-0.01c-0.61-0.03-1.09-0.54-1.06-1.16c0.03-0.61,0.6-1.1,1.16-1.06 c2.35,0.15,4.35-1.73,4.46-4.08c0.03-0.61,0.55-1.09,1.16-1.06c0.61,0.03,1.09,0.55,1.06,1.16 C262.76,457.78,259.87,460.51,256.42,460.51z" fill="#fff"/></g></g><g><g id="change6_39"><path d="M266.34,518.25c-2.37,7.07-10.02,10.91-17.1,8.56c-7.08-2.34-10.9-9.98-8.53-17.05s10.02-10.91,17.1-8.56 C264.89,503.55,268.71,511.18,266.34,518.25z" fill="#a6112f"/></g><g id="change7_39"><path d="M265.04,517.82c-2.13,6.35-9,9.8-15.36,7.69c-6.36-2.11-9.79-8.96-7.66-15.32c2.13-6.35,9-9.8,15.36-7.69 C263.74,504.61,267.17,511.47,265.04,517.82z" fill="#ffd12b"/></g><g id="change8_39"><path d="M262.1,516.85c-1.58,4.73-6.7,7.3-11.44,5.73c-4.73-1.57-7.29-6.67-5.71-11.41c1.58-4.73,6.7-7.3,11.44-5.73 C261.13,507.01,263.69,512.12,262.1,516.85z" fill="#fff2bd"/></g><g id="change2_39"><path d="M253.13,520.27c-0.09,0-0.19,0-0.28-0.01c-0.61-0.03-1.09-0.54-1.06-1.16c0.03-0.61,0.6-1.1,1.16-1.06 c2.35,0.15,4.35-1.73,4.46-4.08c0.03-0.61,0.55-1.09,1.16-1.06c0.61,0.03,1.09,0.55,1.06,1.16 C259.46,517.54,256.57,520.27,253.13,520.27z" fill="#fff"/></g></g><g><g id="change6_16"><path d="M263.05,578.01c-2.37,7.07-10.02,10.91-17.1,8.56c-7.08-2.34-10.9-9.98-8.53-17.05 c2.37-7.07,10.02-10.91,17.1-8.56C261.59,563.3,265.41,570.94,263.05,578.01z" fill="#a6112f"/></g><g id="change7_16"><path d="M261.75,577.58c-2.13,6.35-9,9.8-15.36,7.69c-6.36-2.11-9.79-8.96-7.66-15.32s9-9.8,15.36-7.69 C260.44,564.37,263.87,571.22,261.75,577.58z" fill="#ffd12b"/></g><g id="change8_16"><path d="M258.81,576.61c-1.58,4.73-6.7,7.3-11.44,5.73c-4.73-1.57-7.29-6.67-5.71-11.41s6.7-7.3,11.44-5.73 C257.83,566.77,260.39,571.87,258.81,576.61z" fill="#fff2bd"/></g><g id="change2_17"><path d="M249.83,580.03c-0.09,0-0.19,0-0.28-0.01c-0.61-0.03-1.09-0.54-1.06-1.16c0.03-0.61,0.6-1.1,1.16-1.06 c2.35,0.15,4.35-1.73,4.46-4.08c0.03-0.61,0.55-1.09,1.16-1.06c0.61,0.03,1.09,0.55,1.06,1.16 C256.16,577.3,253.28,580.03,249.83,580.03z" fill="#fff"/></g></g><g><g id="change6_30"><path d="M259.75,637.77c-2.37,7.07-10.02,10.91-17.1,8.56c-7.08-2.34-10.9-9.98-8.53-17.05 c2.37-7.07,10.02-10.91,17.1-8.56C258.3,623.06,262.11,630.7,259.75,637.77z" fill="#a6112f"/></g><g id="change7_30"><path d="M258.45,637.34c-2.13,6.35-9,9.8-15.36,7.69c-6.36-2.11-9.79-8.96-7.66-15.32s9-9.8,15.36-7.69 C257.14,624.12,260.57,630.98,258.45,637.34z" fill="#ffd12b"/></g><g id="change8_30"><path d="M255.51,636.36c-1.58,4.73-6.7,7.3-11.44,5.73c-4.73-1.57-7.29-6.67-5.71-11.41 c1.58-4.73,6.7-7.3,11.44-5.73C254.54,626.53,257.09,631.63,255.51,636.36z" fill="#fff2bd"/></g><g id="change2_32"><path d="M246.53,639.79c-0.09,0-0.19,0-0.28-0.01c-0.61-0.03-1.09-0.54-1.06-1.16c0.03-0.61,0.6-1.1,1.16-1.06 c2.35,0.15,4.35-1.73,4.46-4.08c0.03-0.61,0.55-1.09,1.16-1.06c0.61,0.03,1.09,0.55,1.06,1.16 C252.86,637.06,249.98,639.79,246.53,639.79z" fill="#fff"/></g></g><g><g id="change6_23"><path d="M256.45,697.53c-2.37,7.07-10.02,10.91-17.1,8.56c-7.08-2.34-10.9-9.98-8.53-17.05 c2.37-7.07,10.02-10.91,17.1-8.56C255,682.82,258.82,690.45,256.45,697.53z" fill="#a6112f"/></g><g id="change7_23"><path d="M255.15,697.1c-2.13,6.35-9,9.8-15.36,7.69c-6.36-2.11-9.79-8.96-7.66-15.32c2.13-6.35,9-9.8,15.36-7.69 C253.84,683.88,257.28,690.74,255.15,697.1z" fill="#ffd12b"/></g><g id="change8_23"><path d="M252.21,696.12c-1.58,4.73-6.7,7.3-11.44,5.73c-4.73-1.57-7.29-6.67-5.71-11.41 c1.58-4.73,6.7-7.3,11.44-5.73C251.24,686.28,253.79,691.39,252.21,696.12z" fill="#fff2bd"/></g><g id="change2_2"><path d="M243.23,699.54c-0.09,0-0.19,0-0.28-0.01c-0.61-0.03-1.09-0.54-1.06-1.16c0.03-0.61,0.6-1.1,1.16-1.06 c2.35,0.13,4.35-1.73,4.46-4.08c0.03-0.61,0.55-1.09,1.16-1.06c0.61,0.03,1.09,0.55,1.06,1.16 C249.57,696.81,246.68,699.54,243.23,699.54z" fill="#fff"/></g></g><g><g id="change6_33"><path d="M307.71,694.86c-2.37,7.07-10.02,10.91-17.1,8.56c-7.08-2.34-10.9-9.98-8.53-17.05s10.02-10.91,17.1-8.56 C306.26,680.15,310.08,687.79,307.71,694.86z" fill="#a6112f"/></g><g id="change7_33"><path d="M306.41,694.43c-2.13,6.35-9,9.8-15.36,7.69c-6.36-2.11-9.79-8.96-7.66-15.32c2.13-6.35,9-9.8,15.36-7.69 C305.1,681.22,308.53,688.07,306.41,694.43z" fill="#ffd12b"/></g><g id="change8_33"><path d="M303.47,693.46c-1.58,4.73-6.7,7.3-11.44,5.73c-4.73-1.57-7.29-6.67-5.71-11.41 c1.58-4.73,6.7-7.3,11.44-5.73C302.5,683.62,305.05,688.72,303.47,693.46z" fill="#fff2bd"/></g><g id="change2_1"><path d="M294.49,696.88c-0.09,0-0.19,0-0.28-0.01c-0.61-0.03-1.09-0.54-1.06-1.16c0.03-0.61,0.6-1.1,1.16-1.06 c2.35,0.13,4.35-1.73,4.46-4.08c0.03-0.61,0.55-1.09,1.16-1.06c0.61,0.03,1.09,0.55,1.06,1.16 C300.82,694.15,297.94,696.88,294.49,696.88z" fill="#fff"/></g></g><g><g id="change6_4"><path d="M46.99,87.72c-2.37,7.07-10.02,10.91-17.1,8.56c-7.08-2.34-10.9-9.98-8.53-17.05 c2.37-7.07,10.02-10.91,17.1-8.56C45.54,73.01,49.35,80.65,46.99,87.72z" fill="#a6112f"/></g><g id="change7_4"><path d="M45.69,87.29c-2.13,6.35-9,9.8-15.36,7.69c-6.36-2.11-9.79-8.96-7.66-15.32c2.13-6.35,9-9.8,15.36-7.69 C44.38,74.07,47.81,80.93,45.69,87.29z" fill="#ffd12b"/></g><g id="change8_4"><path d="M42.75,86.31c-1.58,4.73-6.7,7.3-11.44,5.73c-4.73-1.57-7.29-6.67-5.71-11.41c1.58-4.73,6.7-7.3,11.44-5.73 C41.78,76.48,44.33,81.58,42.75,86.31z" fill="#fff2bd"/></g><g id="change2_5"><path d="M33.77,89.74c-0.09,0-0.19,0-0.28-0.01c-0.61-0.03-1.09-0.54-1.06-1.16c0.03-0.61,0.6-1.1,1.16-1.06 c2.35,0.15,4.35-1.73,4.46-4.08c0.03-0.61,0.55-1.09,1.16-1.06c0.61,0.03,1.09,0.55,1.06,1.16 C40.1,87.01,37.22,89.74,33.77,89.74z" fill="#fff"/></g></g><g><g id="change6_29"><path d="M51.01,155.73c-2.37,7.07-10.02,10.91-17.1,8.56c-7.08-2.34-10.9-9.98-8.53-17.05 c2.37-7.07,10.02-10.91,17.1-8.56C49.56,141.03,53.38,148.66,51.01,155.73z" fill="#a6112f"/></g><g id="change7_29"><path d="M49.71,155.3c-2.13,6.35-9,9.8-15.36,7.69c-6.36-2.11-9.79-8.96-7.66-15.32s9-9.8,15.36-7.69 C48.41,142.09,51.84,148.95,49.71,155.3z" fill="#ffd12b"/></g><g id="change8_29"><path d="M46.77,154.33c-1.58,4.73-6.7,7.3-11.44,5.73c-4.73-1.57-7.29-6.67-5.71-11.41c1.58-4.73,6.7-7.3,11.44-5.73 C45.8,144.49,48.36,149.6,46.77,154.33z" fill="#fff2bd"/></g><g id="change2_31"><path d="M37.79,157.75c-0.09,0-0.19,0-0.28-0.01c-0.61-0.03-1.09-0.54-1.06-1.16c0.03-0.61,0.6-1.1,1.16-1.06 c2.35,0.15,4.35-1.73,4.46-4.08c0.03-0.61,0.55-1.09,1.16-1.06c0.61,0.03,1.09,0.55,1.06,1.16 C44.13,155.02,41.24,157.75,37.79,157.75z" fill="#fff"/></g></g><g><g id="change6_21"><path d="M55.04,223.75c-2.37,7.07-10.02,10.91-17.1,8.56c-7.08-2.34-10.9-9.98-8.53-17.05 c2.37-7.07,10.02-10.91,17.1-8.56C53.58,209.04,57.4,216.67,55.04,223.75z" fill="#a6112f"/></g><g id="change7_21"><path d="M53.74,223.32c-2.13,6.35-9,9.8-15.36,7.69c-6.36-2.11-9.79-8.96-7.66-15.32c2.13-6.35,9-9.8,15.36-7.69 C52.43,210.1,55.86,216.96,53.74,223.32z" fill="#ffd12b"/></g><g id="change8_21"><path d="M50.8,222.34c-1.58,4.73-6.7,7.3-11.44,5.73c-4.73-1.57-7.29-6.67-5.71-11.41c1.58-4.73,6.7-7.3,11.44-5.73 C49.82,212.5,52.38,217.61,50.8,222.34z" fill="#fff2bd"/></g><g id="change2_22"><path d="M41.82,225.76c-0.09,0-0.19,0-0.28-0.01c-0.61-0.03-1.09-0.54-1.06-1.16c0.03-0.61,0.6-1.1,1.16-1.06 c2.35,0.14,4.35-1.73,4.46-4.08c0.03-0.61,0.55-1.09,1.16-1.06c0.61,0.03,1.09,0.55,1.06,1.16 C48.15,223.03,45.27,225.76,41.82,225.76z" fill="#fff"/></g></g><g><g id="change6_11"><path d="M59.06,291.76c-2.37,7.07-10.02,10.91-17.1,8.56c-7.08-2.34-10.9-9.98-8.53-17.05s10.02-10.91,17.1-8.56 C57.61,277.05,61.43,284.69,59.06,291.76z" fill="#a6112f"/></g><g id="change7_11"><path d="M57.76,291.33c-2.13,6.35-9,9.8-15.36,7.69c-6.36-2.11-9.79-8.96-7.66-15.32s9-9.8,15.36-7.69 C56.46,278.12,59.89,284.97,57.76,291.33z" fill="#ffd12b"/></g><g id="change8_11"><path d="M54.82,290.36c-1.58,4.73-6.7,7.3-11.44,5.73c-4.73-1.57-7.29-6.67-5.71-11.41s6.7-7.3,11.44-5.73 C53.85,280.52,56.4,285.62,54.82,290.36z" fill="#fff2bd"/></g><g id="change2_13"><path d="M45.84,293.78c-0.09,0-0.19,0-0.28-0.01c-0.61-0.03-1.09-0.54-1.06-1.16c0.03-0.61,0.6-1.1,1.16-1.06 c2.35,0.15,4.35-1.73,4.46-4.08c0.03-0.61,0.55-1.09,1.16-1.06c0.61,0.03,1.09,0.55,1.06,1.16 C52.18,291.05,49.29,293.78,45.84,293.78z" fill="#fff"/></g></g><g><g id="change6_26"><path d="M63.09,359.77c-2.37,7.07-10.02,10.91-17.1,8.56c-7.08-2.34-10.9-9.98-8.53-17.05 c2.37-7.07,10.02-10.91,17.1-8.56C61.63,345.07,65.45,352.7,63.09,359.77z" fill="#a6112f"/></g><g id="change7_26"><path d="M61.78,359.34c-2.13,6.35-9,9.8-15.36,7.69c-6.36-2.11-9.79-8.96-7.66-15.32s9-9.8,15.36-7.69 C60.48,346.13,63.91,352.99,61.78,359.34z" fill="#ffd12b"/></g><g id="change8_26"><path d="M58.85,358.37c-1.58,4.73-6.7,7.3-11.44,5.73c-4.73-1.57-7.29-6.67-5.71-11.41c1.58-4.73,6.7-7.3,11.44-5.73 C57.87,348.53,60.43,353.64,58.85,358.37z" fill="#fff2bd"/></g><g id="change2_25"><path d="M49.87,361.79c-0.09,0-0.19,0-0.28-0.01c-0.61-0.03-1.09-0.54-1.06-1.16c0.03-0.61,0.6-1.1,1.16-1.06 c2.35,0.15,4.35-1.73,4.46-4.08c0.03-0.61,0.55-1.09,1.16-1.06c0.61,0.03,1.09,0.55,1.06,1.16 C56.2,359.06,53.31,361.79,49.87,361.79z" fill="#fff"/></g></g><g><g id="change6_9"><path d="M67.11,427.79c-2.37,7.07-10.02,10.91-17.1,8.56c-7.08-2.34-10.9-9.98-8.53-17.05 c2.37-7.07,10.02-10.91,17.1-8.56C65.66,413.08,69.48,420.71,67.11,427.79z" fill="#a6112f"/></g><g id="change7_9"><path d="M65.81,427.36c-2.13,6.35-9,9.8-15.36,7.69c-6.36-2.11-9.79-8.96-7.66-15.32s9-9.8,15.36-7.69 C64.5,414.14,67.93,421,65.81,427.36z" fill="#ffd12b"/></g><g id="change8_9"><path d="M62.87,426.38c-1.58,4.73-6.7,7.3-11.44,5.73c-4.73-1.57-7.29-6.67-5.71-11.41c1.58-4.73,6.7-7.3,11.44-5.73 C61.9,416.54,64.45,421.65,62.87,426.38z" fill="#fff2bd"/></g><g id="change2_11"><path d="M53.89,429.81c-0.09,0-0.19,0-0.28-0.01c-0.61-0.03-1.09-0.54-1.06-1.16c0.03-0.61,0.6-1.1,1.16-1.06 c2.35,0.15,4.35-1.73,4.46-4.08c0.03-0.61,0.55-1.09,1.16-1.06c0.61,0.03,1.09,0.55,1.06,1.16 C60.22,427.08,57.34,429.81,53.89,429.81z" fill="#fff"/></g></g><g><g id="change6_17"><path d="M71.13,495.8c-2.37,7.07-10.02,10.91-17.1,8.56c-7.08-2.34-10.9-9.98-8.53-17.05s10.02-10.91,17.1-8.56 C69.68,481.1,73.5,488.73,71.13,495.8z" fill="#a6112f"/></g><g id="change7_17"><path d="M69.83,495.37c-2.13,6.35-9,9.8-15.36,7.69c-6.36-2.11-9.79-8.96-7.66-15.32s9-9.8,15.36-7.69 C68.53,482.16,71.96,489.02,69.83,495.37z" fill="#ffd12b"/></g><g id="change8_17"><path d="M66.89,494.4c-1.58,4.73-6.7,7.3-11.44,5.73c-4.73-1.57-7.29-6.67-5.71-11.41s6.7-7.3,11.44-5.73 C65.92,484.56,68.48,489.67,66.89,494.4z" fill="#fff2bd"/></g><g id="change2_18"><path d="M57.92,497.82c-0.09,0-0.19,0-0.28-0.01c-0.61-0.03-1.09-0.54-1.06-1.16c0.03-0.61,0.6-1.1,1.16-1.06 c2.35,0.15,4.35-1.73,4.46-4.08c0.03-0.61,0.55-1.09,1.16-1.06c0.61,0.03,1.09,0.55,1.06,1.16 C64.25,495.09,61.36,497.82,57.92,497.82z" fill="#fff"/></g></g><g><g id="change6_31"><path d="M75.16,563.82c-2.37,7.07-10.02,10.91-17.1,8.56c-7.08-2.34-10.9-9.98-8.53-17.05 c2.37-7.07,10.02-10.91,17.1-8.56C73.71,549.11,77.52,556.74,75.16,563.82z" fill="#a6112f"/></g><g id="change7_31"><path d="M73.86,563.38c-2.13,6.35-9,9.8-15.36,7.69c-6.36-2.11-9.79-8.96-7.66-15.32s9-9.8,15.36-7.69 C72.55,550.17,75.98,557.03,73.86,563.38z" fill="#ffd12b"/></g><g id="change8_31"><path d="M70.92,562.41c-1.58,4.73-6.7,7.3-11.44,5.73c-4.73-1.57-7.29-6.67-5.71-11.41c1.58-4.73,6.7-7.3,11.44-5.73 C69.95,552.57,72.5,557.68,70.92,562.41z" fill="#fff2bd"/></g><g id="change2_33"><path d="M61.94,565.83c-0.09,0-0.19,0-0.28-0.01c-0.61-0.03-1.09-0.54-1.06-1.16c0.03-0.61,0.6-1.1,1.16-1.06 c2.35,0.15,4.35-1.73,4.46-4.08c0.03-0.61,0.55-1.09,1.16-1.06c0.61,0.03,1.09,0.55,1.06,1.16 C68.27,563.1,65.39,565.83,61.94,565.83z" fill="#fff"/></g></g><g><g id="change6_18"><path d="M79.18,631.83c-2.37,7.07-10.02,10.91-17.1,8.56c-7.08-2.34-10.9-9.98-8.53-17.05 c2.37-7.07,10.02-10.91,17.1-8.56C77.73,617.12,81.55,624.76,79.18,631.83z" fill="#a6112f"/></g><g id="change7_18"><path d="M77.88,631.4c-2.13,6.35-9,9.8-15.36,7.69c-6.36-2.11-9.79-8.96-7.66-15.32s9-9.8,15.36-7.69 C76.58,618.19,80.01,625.04,77.88,631.4z" fill="#ffd12b"/></g><g id="change8_18"><path d="M74.94,630.43c-1.58,4.73-6.7,7.3-11.44,5.73c-4.73-1.57-7.29-6.67-5.71-11.41c1.58-4.73,6.7-7.3,11.44-5.73 C73.97,620.59,76.53,625.69,74.94,630.43z" fill="#fff2bd"/></g><g id="change2_19"><path d="M65.96,633.85c-0.09,0-0.19,0-0.28-0.01c-0.61-0.03-1.09-0.54-1.06-1.16c0.03-0.61,0.6-1.1,1.16-1.06 c2.35,0.15,4.35-1.73,4.46-4.08c0.03-0.61,0.55-1.09,1.16-1.06c0.61,0.03,1.09,0.55,1.06,1.16 C72.3,631.12,69.41,633.85,65.96,633.85z" fill="#fff"/></g></g><g><g id="change6_35"><path d="M83.21,699.84c-2.37,7.07-10.02,10.91-17.1,8.56c-7.08-2.34-10.9-9.98-8.53-17.05 c2.37-7.07,10.02-10.91,17.1-8.56C81.75,685.14,85.57,692.77,83.21,699.84z" fill="#a6112f"/></g><g id="change7_35"><path d="M81.91,699.41c-2.13,6.35-9,9.8-15.36,7.69c-6.36-2.11-9.79-8.96-7.66-15.32s9-9.8,15.36-7.69 C80.6,686.2,84.03,693.06,81.91,699.41z" fill="#ffd12b"/></g><g id="change8_35"><path d="M78.97,698.44c-1.58,4.73-6.7,7.3-11.44,5.73c-4.73-1.57-7.29-6.67-5.71-11.41s6.7-7.3,11.44-5.73 C77.99,688.6,80.55,693.71,78.97,698.44z" fill="#fff2bd"/></g><g id="change2_36"><path d="M69.99,701.86c-0.09,0-0.19,0-0.28-0.01c-0.61-0.03-1.09-0.54-1.06-1.16c0.03-0.61,0.6-1.1,1.16-1.06 c2.35,0.15,4.35-1.73,4.46-4.08c0.03-0.61,0.55-1.09,1.16-1.06c0.61,0.03,1.09,0.55,1.06,1.16 C76.32,699.13,73.44,701.86,69.99,701.86z" fill="#fff"/></g></g><g><g id="change6_27"><path d="M87.23,767.86c-2.37,7.07-10.02,10.91-17.1,8.56c-7.08-2.34-10.9-9.98-8.53-17.05 c2.37-7.07,10.02-10.91,17.1-8.56C85.78,753.15,89.6,760.78,87.23,767.86z" fill="#a6112f"/></g><g id="change7_27"><path d="M85.93,767.43c-2.13,6.35-9,9.8-15.36,7.69c-6.36-2.11-9.79-8.96-7.66-15.32s9-9.8,15.36-7.69 C84.62,754.21,88.06,761.07,85.93,767.43z" fill="#ffd12b"/></g><g id="change8_27"><path d="M82.99,766.45c-1.58,4.73-6.7,7.3-11.44,5.73c-4.73-1.57-7.29-6.67-5.71-11.41s6.7-7.3,11.44-5.73 C82.02,756.61,84.57,761.72,82.99,766.45z" fill="#fff2bd"/></g><g id="change2_26"><path d="M74.01,769.87c-0.09,0-0.19,0-0.28-0.01c-0.61-0.03-1.09-0.54-1.06-1.16c0.03-0.61,0.6-1.1,1.16-1.06 c2.35,0.15,4.35-1.73,4.46-4.08c0.03-0.61,0.55-1.09,1.16-1.06c0.61,0.03,1.09,0.55,1.06,1.16 C80.35,767.14,77.46,769.87,74.01,769.87z" fill="#fff"/></g></g><g><g id="change6_38"><path d="M91.26,835.87c-2.37,7.07-10.02,10.91-17.1,8.56c-7.08-2.34-10.9-9.98-8.53-17.05 c2.37-7.07,10.02-10.91,17.1-8.56C89.8,821.17,93.62,828.8,91.26,835.87z" fill="#a6112f"/></g><g id="change7_38"><path d="M89.95,835.44c-2.13,6.35-9,9.8-15.36,7.69c-6.36-2.11-9.79-8.96-7.66-15.32s9-9.8,15.36-7.69 C88.65,822.23,92.08,829.09,89.95,835.44z" fill="#ffd12b"/></g><g id="change8_38"><path d="M87.02,834.47c-1.58,4.73-6.7,7.3-11.44,5.73c-4.73-1.57-7.29-6.67-5.71-11.41s6.7-7.3,11.44-5.73 C86.04,824.63,88.6,829.73,87.02,834.47z" fill="#fff2bd"/></g><g id="change2_29"><path d="M78.04,837.89c-0.09,0-0.19,0-0.28-0.01c-0.61-0.03-1.09-0.54-1.06-1.16c0.03-0.61,0.6-1.1,1.16-1.06 c2.35,0.13,4.35-1.73,4.46-4.08c0.03-0.61,0.55-1.09,1.16-1.06c0.61,0.03,1.09,0.55,1.06,1.16 C84.37,835.16,81.48,837.89,78.04,837.89z" fill="#fff"/></g></g><g><g id="change6_15"><path d="M153.89,838.77c-2.37,7.07-10.02,10.91-17.1,8.56c-7.08-2.34-10.9-9.98-8.53-17.05 c2.37-7.07,10.02-10.91,17.1-8.56S156.26,831.7,153.89,838.77z" fill="#a6112f"/></g><g id="change7_15"><path d="M152.59,838.34c-2.13,6.35-9,9.8-15.36,7.69c-6.36-2.11-9.79-8.96-7.66-15.32c2.13-6.35,9-9.8,15.36-7.69 S154.72,831.99,152.59,838.34z" fill="#ffd12b"/></g><g id="change8_15"><path d="M149.65,837.37c-1.58,4.73-6.7,7.3-11.44,5.73c-4.73-1.57-7.29-6.67-5.71-11.41 c1.58-4.73,6.7-7.3,11.44-5.73C148.68,827.53,151.24,832.64,149.65,837.37z" fill="#fff2bd"/></g><g id="change2_16"><path d="M140.67,840.79c-0.09,0-0.19,0-0.28-0.01c-0.61-0.03-1.09-0.54-1.06-1.16c0.03-0.61,0.6-1.1,1.16-1.06 c2.35,0.15,4.35-1.73,4.46-4.08c0.03-0.61,0.55-1.09,1.16-1.06c0.61,0.03,1.09,0.55,1.06,1.16 C147.01,838.06,144.12,840.79,140.67,840.79z" fill="#fff"/></g></g><g><g id="change6_3"><path d="M216.53,841.68c-2.37,7.07-10.02,10.91-17.1,8.56c-7.08-2.34-10.9-9.98-8.53-17.05 c2.37-7.07,10.02-10.91,17.1-8.56C215.08,826.97,218.9,834.6,216.53,841.68z" fill="#a6112f"/></g><g id="change7_3"><path d="M215.23,841.25c-2.13,6.35-9,9.8-15.36,7.69c-6.36-2.11-9.79-8.96-7.66-15.32s9-9.8,15.36-7.69 C213.92,828.03,217.35,834.89,215.23,841.25z" fill="#ffd12b"/></g><g id="change8_3"><path d="M212.29,840.27c-1.58,4.73-6.7,7.3-11.44,5.73c-4.73-1.57-7.29-6.67-5.71-11.41 c1.58-4.73,6.7-7.3,11.44-5.73C211.32,830.43,213.87,835.54,212.29,840.27z" fill="#fff2bd"/></g><g id="change2_4"><path d="M203.31,843.69c-0.09,0-0.19,0-0.28-0.01c-0.61-0.03-1.09-0.54-1.06-1.16c0.03-0.61,0.6-1.1,1.16-1.06 c2.35,0.15,4.35-1.73,4.46-4.08c0.03-0.61,0.55-1.09,1.16-1.06c0.61,0.03,1.09,0.55,1.06,1.16 C209.64,840.96,206.76,843.69,203.31,843.69z" fill="#fff"/></g></g><g><g id="change6_41"><path d="M279.17,844.58c-2.37,7.07-10.02,10.91-17.1,8.56c-7.08-2.34-10.9-9.98-8.53-17.05 c2.37-7.07,10.02-10.91,17.1-8.56C277.71,829.87,281.53,837.51,279.17,844.58z" fill="#a6112f"/></g><g id="change7_41"><path d="M277.87,844.15c-2.13,6.35-9,9.8-15.36,7.69c-6.36-2.11-9.79-8.96-7.66-15.32s9-9.8,15.36-7.69 C276.56,830.94,279.99,837.79,277.87,844.15z" fill="#ffd12b"/></g><g id="change8_41"><path d="M274.93,843.17c-1.58,4.73-6.7,7.3-11.44,5.73c-4.73-1.57-7.29-6.67-5.71-11.41 c1.58-4.73,6.7-7.3,11.44-5.73C273.95,833.34,276.51,838.44,274.93,843.17z" fill="#fff2bd"/></g><g id="change2_42"><path d="M265.95,846.6c-0.09,0-0.19,0-0.28-0.01c-0.61-0.03-1.09-0.54-1.06-1.16c0.03-0.61,0.6-1.1,1.16-1.06 c2.35,0.15,4.35-1.73,4.46-4.08c0.03-0.61,0.55-1.09,1.16-1.06c0.61,0.03,1.09,0.55,1.06,1.16 C272.28,843.87,269.4,846.6,265.95,846.6z" fill="#fff"/></g></g><g><g id="change6_12"><path d="M341.8,847.48c-2.37,7.07-10.02,10.91-17.1,8.56c-7.08-2.34-10.9-9.98-8.53-17.05 c2.37-7.07,10.02-10.91,17.1-8.56C340.35,832.78,344.17,840.41,341.8,847.48z" fill="#a6112f"/></g><g id="change7_12"><path d="M340.5,847.05c-2.13,6.35-9,9.8-15.36,7.69c-6.36-2.11-9.79-8.96-7.66-15.32c2.13-6.35,9-9.8,15.36-7.69 C339.2,833.84,342.63,840.7,340.5,847.05z" fill="#ffd12b"/></g><g id="change8_12"><path d="M337.56,846.08c-1.58,4.73-6.7,7.3-11.44,5.73c-4.73-1.57-7.29-6.67-5.71-11.41 c1.58-4.73,6.7-7.3,11.44-5.73C336.59,836.24,339.15,841.35,337.56,846.08z" fill="#fff2bd"/></g><g id="change2_27"><path d="M328.59,849.5c-0.09,0-0.19,0-0.28-0.01c-0.61-0.03-1.09-0.54-1.06-1.16c0.03-0.61,0.6-1.1,1.16-1.06 c2.35,0.13,4.35-1.73,4.46-4.08c0.03-0.61,0.55-1.09,1.16-1.06c0.61,0.03,1.09,0.55,1.06,1.16 C334.92,846.77,332.03,849.5,328.59,849.5z" fill="#fff"/></g></g><g><g id="change6_37"><path d="M355.32,693.75c-2.37,7.07-10.02,10.91-17.1,8.56c-7.08-2.34-10.9-9.98-8.53-17.05 c2.37-7.07,10.02-10.91,17.1-8.56C353.87,679.04,357.68,686.68,355.32,693.75z" fill="#a6112f"/></g><g id="change7_37"><path d="M354.02,693.32c-2.13,6.35-9,9.8-15.36,7.69c-6.36-2.11-9.79-8.96-7.66-15.32c2.13-6.35,9-9.8,15.36-7.69 C352.71,680.11,356.14,686.96,354.02,693.32z" fill="#ffd12b"/></g><g id="change8_37"><path d="M351.08,692.35c-1.58,4.73-6.7,7.3-11.44,5.73c-4.73-1.57-7.29-6.67-5.71-11.41 c1.58-4.73,6.7-7.3,11.44-5.73C350.11,682.51,352.66,687.61,351.08,692.35z" fill="#fff2bd"/></g><g id="change2_40"><path d="M342.1,695.77c-0.09,0-0.19,0-0.28-0.01c-0.61-0.03-1.09-0.54-1.06-1.16c0.03-0.61,0.6-1.1,1.16-1.06 c2.35,0.13,4.35-1.73,4.46-4.08c0.03-0.61,0.55-1.09,1.16-1.06c0.61,0.03,1.09,0.55,1.06,1.16 C348.43,693.04,345.55,695.77,342.1,695.77z" fill="#fff"/></g></g><g><g><g id="change6_1"><path d="M337.33,909.7c-2.37,7.07-10.02,10.91-17.1,8.56c-7.08-2.34-10.9-9.98-8.53-17.05 c2.37-7.07,10.02-10.91,17.1-8.56C335.88,895,339.7,902.63,337.33,909.7z" fill="#a6112f"/></g><g id="change7_1"><path d="M336.03,909.27c-2.13,6.35-9,9.8-15.36,7.69c-6.36-2.11-9.79-8.96-7.66-15.32c2.13-6.35,9-9.8,15.36-7.69 C334.73,896.06,338.16,902.92,336.03,909.27z" fill="#ffd12b"/></g><g id="change8_1"><path d="M333.09,908.3c-1.58,4.73-6.7,7.3-11.44,5.73c-4.73-1.57-7.29-6.67-5.71-11.41s6.7-7.3,11.44-5.73 C332.12,898.46,334.68,903.57,333.09,908.3z" fill="#fff2bd"/></g><g id="change2_6"><path d="M324.11,911.72c-0.09,0-0.19,0-0.28-0.01c-0.61-0.03-1.09-0.54-1.06-1.16c0.03-0.61,0.6-1.1,1.16-1.06 c2.35,0.13,4.35-1.73,4.46-4.08c0.03-0.61,0.55-1.09,1.16-1.06c0.61,0.03,1.09,0.55,1.06,1.16 C330.45,908.99,327.56,911.72,324.11,911.72z" fill="#fff"/></g></g><g><g id="change6_25"><path d="M385.82,874.11c-2.37,7.07-10.02,10.91-17.1,8.56c-7.08-2.34-10.9-9.98-8.53-17.05s10.02-10.91,17.1-8.56 C384.37,859.4,388.19,867.03,385.82,874.11z" fill="#a6112f"/></g><g id="change7_25"><path d="M384.52,873.68c-2.13,6.35-9,9.8-15.36,7.69c-6.36-2.11-9.79-8.96-7.66-15.32s9-9.8,15.36-7.69 C383.22,860.46,386.65,867.32,384.52,873.68z" fill="#ffd12b"/></g><g id="change8_25"><path d="M381.58,872.7c-1.58,4.73-6.7,7.3-11.44,5.73c-4.73-1.57-7.29-6.67-5.71-11.41s6.7-7.3,11.44-5.73 S383.16,867.97,381.58,872.7z" fill="#fff2bd"/></g><g id="change2_24"><path d="M372.6,876.12c-0.09,0-0.19,0-0.28-0.01c-0.61-0.03-1.09-0.54-1.06-1.16c0.03-0.61,0.6-1.1,1.16-1.06 c2.35,0.15,4.35-1.73,4.46-4.08c0.03-0.61,0.55-1.09,1.16-1.06c0.61,0.03,1.09,0.55,1.06,1.16 C378.94,873.39,376.05,876.12,372.6,876.12z" fill="#fff"/></g></g><g><g id="change6_42"><path d="M434.31,838.51c-2.37,7.07-10.02,10.91-17.1,8.56c-7.08-2.34-10.9-9.98-8.53-17.05 c2.37-7.07,10.02-10.91,17.1-8.56C432.86,823.8,436.68,831.44,434.31,838.51z" fill="#a6112f"/></g><g id="change7_42"><path d="M433.01,838.08c-2.13,6.35-9,9.8-15.36,7.69c-6.36-2.11-9.79-8.96-7.66-15.32c2.13-6.35,9-9.8,15.36-7.69 C431.7,824.87,435.14,831.72,433.01,838.08z" fill="#ffd12b"/></g><g id="change8_42"><path d="M430.07,837.11c-1.58,4.73-6.7,7.3-11.44,5.73c-4.73-1.57-7.29-6.67-5.71-11.41 c1.58-4.73,6.7-7.3,11.44-5.73C429.1,827.27,431.65,832.37,430.07,837.11z" fill="#fff2bd"/></g><g id="change2_43"><path d="M421.09,840.53c-0.09,0-0.19,0-0.28-0.01c-0.61-0.03-1.09-0.54-1.06-1.16c0.03-0.61,0.6-1.1,1.16-1.06 c2.35,0.15,4.35-1.73,4.46-4.08c0.03-0.61,0.55-1.09,1.16-1.06c0.61,0.03,1.09,0.55,1.06,1.16 C427.43,837.8,424.54,840.53,421.09,840.53z" fill="#fff"/></g></g><g><g id="change6_14"><path d="M482.8,802.91c-2.37,7.07-10.02,10.91-17.1,8.56c-7.08-2.34-10.9-9.98-8.53-17.05 c2.37-7.07,10.02-10.91,17.1-8.56C481.35,788.21,485.17,795.84,482.8,802.91z" fill="#a6112f"/></g><g id="change7_14"><path d="M481.5,802.48c-2.13,6.35-9,9.8-15.36,7.69c-6.36-2.11-9.79-8.96-7.66-15.32c2.13-6.35,9-9.8,15.36-7.69 C480.19,789.27,483.62,796.13,481.5,802.48z" fill="#ffd12b"/></g><g id="change8_14"><path d="M478.56,801.51c-1.58,4.73-6.7,7.3-11.44,5.73c-4.73-1.57-7.29-6.67-5.71-11.41 c1.58-4.73,6.7-7.3,11.44-5.73S480.14,796.78,478.56,801.51z" fill="#fff2bd"/></g><g id="change2_15"><path d="M469.58,804.93c-0.09,0-0.19,0-0.28-0.01c-0.61-0.03-1.09-0.54-1.06-1.16c0.03-0.61,0.6-1.1,1.16-1.06 c2.35,0.15,4.35-1.73,4.46-4.08c0.03-0.61,0.55-1.09,1.16-1.06c0.61,0.03,1.09,0.55,1.06,1.16 C475.91,802.2,473.03,804.93,469.58,804.93z" fill="#fff"/></g></g><g><g id="change6_24"><path d="M531.29,767.32c-2.37,7.07-10.02,10.91-17.1,8.56c-7.08-2.34-10.9-9.98-8.53-17.05 c2.37-7.07,10.02-10.91,17.1-8.56S533.65,760.24,531.29,767.32z" fill="#a6112f"/></g><g id="change7_24"><path d="M529.99,766.88c-2.13,6.35-9,9.8-15.36,7.69c-6.36-2.11-9.79-8.96-7.66-15.32s9-9.8,15.36-7.69 C528.68,753.67,532.11,760.53,529.99,766.88z" fill="#ffd12b"/></g><g id="change8_24"><path d="M527.05,765.91c-1.58,4.73-6.7,7.3-11.44,5.73c-4.73-1.57-7.29-6.67-5.71-11.41s6.7-7.3,11.44-5.73 C526.08,756.07,528.63,761.18,527.05,765.91z" fill="#fff2bd"/></g><g id="change2_38"><path d="M518.07,769.33c-0.09,0-0.19,0-0.28-0.01c-0.61-0.03-1.09-0.54-1.06-1.16c0.03-0.61,0.6-1.1,1.16-1.06 c2.35,0.13,4.35-1.73,4.46-4.08c0.03-0.61,0.55-1.09,1.16-1.06c0.61,0.03,1.09,0.55,1.06,1.16 C524.4,766.6,521.52,769.33,518.07,769.33z" fill="#fff"/></g></g></g><g><g id="change6_34"><path d="M488.82,735.2c-2.37,7.07-10.02,10.91-17.1,8.56c-7.08-2.34-10.9-9.98-8.53-17.05 c2.37-7.07,10.02-10.91,17.1-8.56C487.37,720.5,491.18,728.13,488.82,735.2z" fill="#a6112f"/></g><g id="change7_34"><path d="M487.52,734.77c-2.13,6.35-9,9.8-15.36,7.69c-6.36-2.11-9.79-8.96-7.66-15.32c2.13-6.35,9-9.8,15.36-7.69 C486.21,721.56,489.64,728.42,487.52,734.77z" fill="#ffd12b"/></g><g id="change8_34"><path d="M484.58,733.8c-1.58,4.73-6.7,7.3-11.44,5.73c-4.73-1.57-7.29-6.67-5.71-11.41c1.58-4.73,6.7-7.3,11.44-5.73 C483.61,723.96,486.16,729.07,484.58,733.8z" fill="#fff2bd"/></g><g id="change2_35"><path d="M475.6,737.22c-0.09,0-0.19,0-0.28-0.01c-0.61-0.03-1.09-0.54-1.06-1.16c0.03-0.61,0.6-1.1,1.16-1.06 c2.35,0.15,4.35-1.73,4.46-4.08c0.03-0.61,0.55-1.09,1.16-1.06c0.61,0.03,1.09,0.55,1.06,1.16 C481.93,734.49,479.05,737.22,475.6,737.22z" fill="#fff"/></g></g><g><g id="change6_28"><path d="M446.35,703.09c-2.37,7.07-10.02,10.91-17.1,8.56c-7.08-2.34-10.9-9.98-8.53-17.05s10.02-10.91,17.1-8.56 C444.89,688.39,448.71,696.02,446.35,703.09z" fill="#a6112f"/></g><g id="change7_28"><path d="M445.05,702.66c-2.13,6.35-9,9.8-15.36,7.69c-6.36-2.11-9.79-8.96-7.66-15.32c2.13-6.35,9-9.8,15.36-7.69 C443.74,689.45,447.17,696.31,445.05,702.66z" fill="#ffd12b"/></g><g id="change8_28"><path d="M442.11,701.69c-1.58,4.73-6.7,7.3-11.44,5.73c-4.73-1.57-7.29-6.67-5.71-11.41 c1.58-4.73,6.7-7.3,11.44-5.73C441.14,691.85,443.69,696.96,442.11,701.69z" fill="#fff2bd"/></g><g id="change2_28"><path d="M433.13,705.11c-0.09,0-0.19,0-0.28-0.01c-0.61-0.03-1.09-0.54-1.06-1.16c0.03-0.61,0.6-1.1,1.16-1.06 c2.35,0.15,4.35-1.73,4.46-4.08c0.03-0.61,0.55-1.09,1.16-1.06c0.61,0.03,1.09,0.55,1.06,1.16 C439.46,702.38,436.58,705.11,433.13,705.11z" fill="#fff"/></g></g><g><g id="change6_40"><path d="M403.88,670.98c-2.37,7.07-10.02,10.91-17.1,8.56c-7.08-2.34-10.9-9.98-8.53-17.05 c2.37-7.07,10.02-10.91,17.1-8.56C402.42,656.28,406.24,663.91,403.88,670.98z" fill="#a6112f"/></g><g id="change7_40"><path d="M402.58,670.55c-2.13,6.35-9,9.8-15.36,7.69c-6.36-2.11-9.79-8.96-7.66-15.32s9-9.8,15.36-7.69 C401.27,657.34,404.7,664.2,402.58,670.55z" fill="#ffd12b"/></g><g id="change8_40"><path d="M399.64,669.58c-1.58,4.73-6.7,7.3-11.44,5.73c-4.73-1.57-7.29-6.67-5.71-11.41 c1.58-4.73,6.7-7.3,11.44-5.73S401.22,664.85,399.64,669.58z" fill="#fff2bd"/></g><g id="change2_41"><path d="M390.66,673c-0.09,0-0.19,0-0.28-0.01c-0.61-0.03-1.09-0.54-1.06-1.16c0.03-0.61,0.6-1.1,1.16-1.06 c2.35,0.15,4.35-1.73,4.46-4.08c0.03-0.61,0.55-1.09,1.16-1.06c0.61,0.03,1.09,0.55,1.06,1.16 C396.99,670.27,394.11,673,390.66,673z" fill="#fff"/></g></g><g><g id="change6_22"><path d="M361.41,638.87c-2.37,7.07-10.02,10.91-17.1,8.56c-7.08-2.34-10.9-9.98-8.53-17.05 c2.37-7.07,10.02-10.91,17.1-8.56C359.95,624.17,363.77,631.8,361.41,638.87z" fill="#a6112f"/></g><g id="change7_22"><path d="M360.11,638.44c-2.13,6.35-9,9.8-15.36,7.69c-6.36-2.11-9.79-8.96-7.66-15.32c2.13-6.35,9-9.8,15.36-7.69 C358.8,625.23,362.23,632.09,360.11,638.44z" fill="#ffd12b"/></g><g id="change8_22"><path d="M357.17,637.47c-1.58,4.73-6.7,7.3-11.44,5.73c-4.73-1.57-7.29-6.67-5.71-11.41 c1.58-4.73,6.7-7.3,11.44-5.73C356.19,627.63,358.75,632.74,357.17,637.47z" fill="#fff2bd"/></g><g id="change2_30"><path d="M348.19,640.89c-0.09,0-0.19,0-0.28-0.01c-0.61-0.03-1.09-0.54-1.06-1.16c0.03-0.61,0.6-1.1,1.16-1.06 c2.35,0.13,4.35-1.73,4.46-4.08c0.03-0.61,0.55-1.09,1.16-1.06c0.61,0.03,1.09,0.55,1.06,1.16 C354.52,638.16,351.64,640.89,348.19,640.89z" fill="#fff"/></g></g></g></g></svg>