<?xml version="1.0" encoding="UTF-8"?><svg xmlns="http://www.w3.org/2000/svg" xmlns:xlink="http://www.w3.org/1999/xlink" height="233.5" preserveAspectRatio="xMidYMid meet" version="1.0" viewBox="0.0 0.0 733.4 233.5" width="733.4" zoomAndPan="magnify"><g><g><g><g id="change1_1"><path d="M0 0H733.4V233.46H0z" fill="#dadada"/></g><g fill="#3f3f3f" id="change2_1"><path d="M257.86,127.27c0,2.93-.25,5.48-.73,7.64,.48,2.04,.73,4.58,.73,7.64s-.25,5.48-.73,7.65h-7.3c.48,2.04,.73,4.58,.73,7.64s-.24,5.48-.73,7.64h-43.81c-.49-2.17-.73-4.71-.73-7.64s.24-5.6,.73-7.64h-7.3c-.49-2.17-.73-4.71-.73-7.65s.24-5.6,.73-7.64h14.6c.48,2.04,.73,4.58,.73,7.64s-.24,5.48-.73,7.65h29.2c-.48-2.17-.73-4.71-.73-7.65s.24-5.6,.73-7.64c-.48-2.16-.73-4.71-.73-7.64s.24-5.6,.73-7.64h-36.5c-.49-2.17-.73-4.71-.73-7.65s.24-5.6,.73-7.64h-7.3c-.49-2.16-.73-4.71-.73-7.64s.24-5.6,.73-7.64c-.49-2.17-.73-4.71-.73-7.64s.24-5.6,.73-7.65h7.3c-.49-2.16-.73-4.71-.73-7.64s.24-5.6,.73-7.64h43.81c.48,2.04,.73,4.58,.73,7.64s-.24,5.48-.73,7.64h7.3c.48,2.04,.73,4.59,.73,7.65s-.25,5.48-.73,7.64h-14.6c-.48-2.17-.73-4.71-.73-7.64s.24-5.6,.73-7.65h-29.2c.48,2.04,.73,4.59,.73,7.65s-.24,5.48-.73,7.64c.48,2.04,.73,4.58,.73,7.64s-.24,5.48-.73,7.64h36.51c.48,2.04,.73,4.59,.73,7.64s-.24,5.48-.73,7.65h7.3c.48,2.04,.73,4.58,.73,7.64Z"/><path d="M322.84,150.2c.48,2.04,.73,4.58,.73,7.64s-.24,5.48-.73,7.64h-29.21c-.48-2.17-.73-4.71-.73-7.64s.24-5.6,.73-7.64h-7.3c-.49-2.17-.73-4.71-.73-7.65s.24-5.6,.73-7.64c-.49-2.16-.73-4.71-.73-7.64s.24-5.6,.73-7.64c-.49-2.17-.73-4.71-.73-7.65s.24-5.6,.73-7.64h-14.6c-.49-2.16-.73-4.71-.73-7.64s.24-5.6,.73-7.64h14.6c-.49-2.17-.73-4.71-.73-7.64s.24-5.6,.73-7.65c-.49-2.16-.73-4.71-.73-7.64s.24-5.6,.73-7.64h14.6c.48,2.04,.73,4.58,.73,7.64s-.24,5.48-.73,7.64c.48,2.04,.73,4.59,.73,7.65s-.24,5.48-.73,7.64h21.9c.48,2.04,.73,4.58,.73,7.64s-.24,5.48-.73,7.64h-21.9c.48,2.04,.73,4.59,.73,7.64s-.24,5.48-.73,7.65c.48,2.04,.73,4.58,.73,7.64s-.24,5.48-.73,7.64c.48,2.04,.73,4.58,.73,7.64s-.24,5.48-.73,7.65h21.9Z"/><path d="M403.88,157.84c0,2.93-.25,5.48-.73,7.64h-14.6c-.48-2.17-.73-4.71-.73-7.64s.24-5.6,.73-7.64h-7.3c-.49-2.17-.73-4.71-.73-7.65s.24-5.6,.73-7.64h-21.9c.48,2.04,.73,4.58,.73,7.64s-.24,5.48-.73,7.65h21.9c.48,2.04,.73,4.58,.73,7.64s-.25,5.48-.73,7.64h-29.2c-.49-2.17-.73-4.71-.73-7.64s.24-5.6,.73-7.64h-7.3c-.49-2.17-.73-4.71-.73-7.65s.24-5.6,.73-7.64h7.3c-.49-2.16-.73-4.71-.73-7.64s.24-5.6,.73-7.64h29.2c-.49-2.17-.73-4.71-.73-7.65s.24-5.6,.73-7.64h-25.55c-.49-2.16-.73-4.71-.73-7.64s.24-5.6,.73-7.64h32.85c.49,2.04,.73,4.58,.73,7.64s-.24,5.48-.73,7.64h7.3c.48,2.04,.73,4.59,.73,7.64s-.24,5.48-.73,7.65c.48,2.04,.73,4.58,.73,7.64s-.24,5.48-.73,7.64c.48,2.04,.73,4.58,.73,7.64s-.24,5.48-.73,7.65h7.3c.48,2.04,.73,4.58,.73,7.64Z"/><path d="M476.9,111.99c0,2.93-.25,5.48-.73,7.65h-14.6c-.48-2.17-.73-4.71-.73-7.65s.24-5.6,.73-7.64h-12.78c.48,2.04,.73,4.59,.73,7.64s-.24,5.48-.73,7.65h-5.48c.48,2.04,.73,4.58,.73,7.64s-.24,5.48-.73,7.64c.48,2.04,.73,4.58,.73,7.64s-.24,5.48-.73,7.65h10.95c.48,2.04,.73,4.58,.73,7.64s-.25,5.48-.73,7.64h-36.51c-.49-2.17-.73-4.71-.73-7.64s.24-5.6,.73-7.64h10.95c-.49-2.17-.73-4.71-.73-7.65s.24-5.6,.73-7.64c-.49-2.16-.73-4.71-.73-7.64s.24-5.6,.73-7.64c-.49-2.17-.73-4.71-.73-7.65s.24-5.6,.73-7.64h-10.95c-.49-2.16-.73-4.71-.73-7.64s.24-5.6,.73-7.64h18.25c.48,2.04,.73,4.58,.73,7.64s-.25,5.48-.73,7.64h7.3c-.49-2.16-.73-4.71-.73-7.64s.24-5.6,.73-7.64h27.38c.48,2.04,.73,4.58,.73,7.64s-.24,5.48-.73,7.64h5.48c.48,2.04,.73,4.59,.73,7.64Z"/><path d="M541.88,150.2c.48,2.04,.73,4.58,.73,7.64s-.24,5.48-.73,7.64h-29.21c-.48-2.17-.73-4.71-.73-7.64s.24-5.6,.73-7.64h-7.3c-.49-2.17-.73-4.71-.73-7.65s.24-5.6,.73-7.64c-.49-2.16-.73-4.71-.73-7.64s.24-5.6,.73-7.64c-.49-2.17-.73-4.71-.73-7.65s.24-5.6,.73-7.64h-14.6c-.49-2.16-.73-4.71-.73-7.64s.24-5.6,.73-7.64h14.6c-.49-2.17-.73-4.71-.73-7.64s.24-5.6,.73-7.65c-.49-2.16-.73-4.71-.73-7.64s.24-5.6,.73-7.64h14.6c.48,2.04,.73,4.58,.73,7.64s-.24,5.48-.73,7.64c.48,2.04,.73,4.59,.73,7.65s-.24,5.48-.73,7.64h21.9c.48,2.04,.73,4.58,.73,7.64s-.24,5.48-.73,7.64h-21.9c.48,2.04,.73,4.59,.73,7.64s-.24,5.48-.73,7.65c.48,2.04,.73,4.58,.73,7.64s-.24,5.48-.73,7.64c.48,2.04,.73,4.58,.73,7.64s-.24,5.48-.73,7.65h21.9Z"/></g><g id="change3_1"><path d="M733.4 0L15.21 0 0 0 0 15.92 0 233.46 15.21 233.46 15.21 15.92 733.4 15.92 733.4 0z" fill="#fff"/></g><g id="change4_1"><path d="M718.19 0L718.19 217.55 0 217.55 0 233.46 718.19 233.46 733.4 233.46 733.4 233.46 733.4 0 718.19 0z" fill="#8a878c"/></g></g></g></g></svg>