<?xml version="1.0" encoding="UTF-8" standalone="no"?><svg xmlns="http://www.w3.org/2000/svg" xmlns:xlink="http://www.w3.org/1999/xlink" fill="#000000" height="902.7" preserveAspectRatio="xMidYMid meet" version="1" viewBox="280.2 48.6 439.6 902.7" width="439.6" zoomAndPan="magnify"><g><g id="change1_1"><path d="M 647.378906 948.898438 L 354.277344 948.898438 C 316.972656 948.898438 286.734375 918.660156 286.734375 881.355469 L 286.734375 118.644531 C 286.734375 81.339844 316.972656 51.101562 354.277344 51.101562 L 647.378906 51.101562 C 684.679688 51.101562 714.921875 81.339844 714.921875 118.644531 L 714.921875 881.355469 C 714.921875 918.660156 684.679688 948.898438 647.378906 948.898438" fill="#1d1d1b"/></g><g id="change2_1"><path d="M 354.277344 53.554688 C 318.386719 53.554688 289.1875 82.753906 289.1875 118.644531 L 289.1875 881.355469 C 289.1875 917.246094 318.386719 946.445312 354.277344 946.445312 L 647.378906 946.445312 C 683.265625 946.445312 712.46875 917.246094 712.46875 881.355469 L 712.46875 118.644531 C 712.46875 82.753906 683.265625 53.554688 647.378906 53.554688 Z M 647.378906 951.355469 L 354.277344 951.355469 C 315.679688 951.355469 284.277344 919.953125 284.277344 881.355469 L 284.277344 118.644531 C 284.277344 80.046875 315.679688 48.644531 354.277344 48.644531 L 647.378906 48.644531 C 685.972656 48.644531 717.375 80.046875 717.375 118.644531 L 717.375 881.355469 C 717.375 919.953125 685.972656 951.355469 647.378906 951.355469" fill="#b2b2b2"/></g><g id="change3_1"><path d="M 649.238281 932.976562 L 352.417969 932.976562 C 325.472656 932.976562 303.632812 911.136719 303.632812 884.191406 L 303.632812 116.90625 C 303.632812 89.960938 325.472656 68.121094 352.417969 68.121094 L 649.238281 68.121094 C 676.179688 68.121094 698.023438 89.960938 698.023438 116.90625 L 698.023438 884.191406 C 698.023438 911.136719 676.179688 932.976562 649.238281 932.976562" fill="#1d1d1b"/></g><g id="change1_2"><path d="M 586.417969 66.894531 L 415.238281 66.894531 L 415.238281 86.765625 C 415.238281 95.207031 422.082031 102.054688 430.523438 102.054688 L 571.128906 102.054688 C 579.574219 102.054688 586.417969 95.207031 586.417969 86.765625 L 586.417969 66.894531" fill="#1d1d1b"/></g><g id="change2_2"><path d="M 719.78125 388.429688 L 713.265625 388.429688 L 713.265625 288.292969 L 719.78125 288.292969 L 719.78125 388.429688" fill="#b2b2b2"/></g><g id="change2_3"><path d="M 286.734375 344.988281 L 280.21875 344.988281 L 280.21875 276.019531 L 286.734375 276.019531 L 286.734375 344.988281" fill="#b2b2b2"/></g><g id="change2_4"><path d="M 286.734375 250.800781 L 280.21875 250.800781 L 280.21875 216.316406 L 286.734375 216.316406 L 286.734375 250.800781" fill="#b2b2b2"/></g><g id="change2_5"><path d="M 286.734375 434.328125 L 280.21875 434.328125 L 280.21875 365.359375 L 286.734375 365.359375 L 286.734375 434.328125" fill="#b2b2b2"/></g><g id="change4_1"><path d="M 448.117188 84.472656 C 448.117188 88.167969 445.121094 91.160156 441.429688 91.160156 C 437.734375 91.160156 434.742188 88.167969 434.742188 84.472656 C 434.742188 80.777344 437.734375 77.785156 441.429688 77.785156 C 445.121094 77.785156 448.117188 80.777344 448.117188 84.472656"/></g><g id="change1_3"><path d="M 445.355469 84.472656 C 445.355469 86.640625 443.597656 88.398438 441.429688 88.398438 C 439.261719 88.398438 437.503906 86.640625 437.503906 84.472656 C 437.503906 82.304688 439.261719 80.546875 441.429688 80.546875 C 443.597656 80.546875 445.355469 82.304688 445.355469 84.472656" fill="#1d1d1b"/></g><g id="change4_2"><path d="M 537.222656 87.460938 L 464.429688 87.460938 C 462.78125 87.460938 461.441406 86.121094 461.441406 84.472656 C 461.441406 82.824219 462.78125 81.484375 464.429688 81.484375 L 537.222656 81.484375 C 538.875 81.484375 540.210938 82.824219 540.210938 84.472656 C 540.210938 86.121094 538.875 87.460938 537.222656 87.460938"/></g></g></svg>