<?xml version="1.0" encoding="UTF-8"?><svg xmlns="http://www.w3.org/2000/svg" xmlns:xlink="http://www.w3.org/1999/xlink" height="440.5" preserveAspectRatio="xMidYMid meet" version="1.0" viewBox="-0.3 -0.0 240.1 440.5" width="240.1" zoomAndPan="magnify"><g id="change1_1"><path d="M181.12289,262.77878c-1.94872,0.28528-3.61124,0.46649-5.24835,0.78006c-4.78706,0.91699-9.08833,2.96317-13.05432,5.75635 c-0.58803,0.41422-1.20657,0.79129-1.7599,1.24747c-4.56123,3.75998-9.71378,4.3494-15.11142,2.46634 c-3.06702-1.06998-5.9895-2.59418-8.8958-4.07349c-2.98683-1.52029-5.85341-3.27484-8.80991-4.85715 c-10.14431-5.42923-20.44269-4.8584-30.7434-0.56052c-4.36613,1.82175-8.30441,4.42703-12.0571,7.31821 c-3.03726,2.34-6.13466,4.60547-9.26645,6.81754c-1.36379,0.96332-2.84506,1.77924-4.33405,2.54297 c-5.75397,2.9512-11.59528,3.17889-17.55823,0.55991c-3.39115-1.48944-6.52622-3.37634-9.42642-5.65518 c-2.70185-2.12308-5.3111-4.36496-8.03172-6.46301c-6.19489-4.77731-12.87952-8.60895-20.62367-10.28635 c-3.38486-0.73315-6.80576-0.88968-10.24993-0.48672c-1.02614,0.12009-2.05523,0.21475-3.06082,0.31879 c-0.53764-1.92978-0.44876-146.69974,0.05716-149.0977c1.99506-0.4839,173.19214-0.57612,178.40201-0.0603 C181.34116,160.19717,181.181,211.3839,181.12289,262.77878z M18.08032,199.76854c0.13933-0.06908,0.27865-0.1382,0.41798-0.20731 c0.61758,0.8887,1.23986,1.77414,1.852,2.6666c5.0629,7.38158,10.12262,14.76534,15.18755,22.14552 c0.49342,0.71896,1.00041,1.72505,1.99013,1.36444c0.60144-0.21915,0.97494-1.11351,1.40171-1.73808 c0.17367-0.25412,0.21541-0.59779,0.32018-0.89966c2.59338-7.47182,5.18531-14.94417,7.78377-22.4142 c0.24954-0.71741,0.53996-1.42061,0.81142-2.1304c0.69729,2.22797,0.95704,4.41177,1.19283,6.59811 c0.91655,8.49867,1.82327,16.9984,2.74254,25.49678c0.0596,0.55075,0.05126,1.18918,0.33515,1.6118 c0.26153,0.38939,0.90007,0.7758,1.32448,0.72888c0.36021-0.03981,0.82835-0.65866,0.93081-1.09579 c0.1401-0.5976,0.01285-1.26959-0.05808-1.90318c-1.3772-12.30666-2.76233-24.6124-4.14884-36.918 c-0.05354-0.47537-0.02649-1.0061-0.23843-1.40369c-0.19291-0.36182-0.64334-0.77133-1.01131-0.80339 c-0.37487-0.03264-0.91394,0.27722-1.15258,0.604c-0.3163,0.4332-0.41539,1.0267-0.59993,1.55411 c-3.08733,8.8226-6.17134,17.6463-9.26313,26.46733c-0.27807,0.79337-0.60448,1.56976-1.01457,2.62788 c-0.68175-0.89601-1.18119-1.50464-1.62948-2.14885c-5.52341-7.93785-11.0376-15.88211-16.56092-23.82005 c-0.40923-0.58813-0.79521-1.22641-1.32524-1.68855c-0.78193-0.68184-1.83416-0.24182-1.90207,0.79282 c-0.05162,0.7868,0.08621,1.59282,0.19629,2.38242c1.39001,9.97101,2.78944,19.94073,4.18861,29.91048 c0.33312,2.37361,0.65145,4.74971,1.02467,7.11705c0.12143,0.77022,0.60129,1.48026,1.44227,1.16878 c0.3936-0.14581,0.56479-0.96719,0.76973-1.50778c0.07498-0.1978-0.04021-0.4697-0.07499-0.70685 c-0.99666-6.79901-1.998-13.59731-2.99014-20.39697C19.36852,208.73901,18.72734,204.25336,18.08032,199.76854z M146.14265,214.07045c0.56796-0.78442,0.99852-1.43394,1.48335-2.04004c4.38855-5.48665,8.78877-10.96391,13.17853-16.44958 c0.44759-0.5593,0.94934-1.11148,1.23071-1.75262c0.1447-0.32977-0.00389-1.02493-0.27095-1.23357 c-0.27936-0.21823-0.9698-0.21913-1.28387-0.01399c-0.51437,0.33595-0.8903,0.89885-1.2888,1.39478 c-4.35088,5.41454-8.69275,10.83633-13.04361,16.2509c-0.47833,0.59525-0.99747,1.1577-1.75259,2.02975 c-0.18648-0.81873-0.3149-1.24524-0.3781-1.68123c-0.76723-5.2903-1.51718-10.58307-2.28918-15.87267 c-0.26845-1.83939-0.73599-2.51236-1.52007-2.20285c-1.25134,0.49402-0.80841,1.53238-0.67729,2.46193 c1.53812,10.90298,3.07056,21.80682,4.60492,32.71034c0.15565,1.10619,0.30432,2.2135,0.47514,3.31735 c0.08533,0.55164,0.0975,1.16154,0.35701,1.62514c0.22842,0.40796,0.75514,0.64894,1.1501,0.96365 c0.2981-0.40408,0.87817-0.83098,0.84761-1.20847c-0.17351-2.14386-0.47844-4.27792-0.7663-6.41159 c-0.42422-3.14476-0.87164-6.28644-1.35858-9.78412c1.07944,0.46008,1.80424,0.74706,2.51073,1.07365 c5.06862,2.34326,10.13298,4.69568,15.19984,7.04279c2.4612,1.14012,4.91618,2.29425,7.39307,3.39935 c0.65054,0.29031,1.45738,0.54712,1.88504-0.31671c0.41656-0.84137-0.1757-1.33136-0.86304-1.68356 c-0.49669-0.25446-1.00587-0.48483-1.51251-0.71941c-6.94951-3.21771-13.90079-6.43167-20.84779-9.65477 C147.83203,214.9558,147.08138,214.54637,146.14265,214.07045z M106.43475,232.19218 c0.19107-0.97513,0.29411-1.60109,0.43747-2.21765c2.44082-10.49889,4.88699-20.99654,7.33057-31.49481 c0.12675-0.54457,0.38305-1.10873,0.32154-1.63364c-0.06378-0.54466-0.30693-1.30647-0.71105-1.51979 c-0.68131-0.35962-1.17015,0.2276-1.38683,0.90134c-0.17099,0.53154-0.30322,1.07671-0.42947,1.62122 c-2.61517,11.27834-5.22874,22.55708-7.83797,33.83679c-0.45629,1.9725-0.3456,2.23033,1.51261,2.7272 c4.70364,1.25761,9.41962,2.46909,14.13264,3.69144c0.38223,0.09912,0.82662,0.28114,1.15768,0.17096 c0.38828-0.12927,0.81664-0.47903,0.97355-0.84273c0.10457-0.24236-0.13905-0.81618-0.39724-0.99348 c-0.44218-0.30365-1.00684-0.45412-1.53938-0.5968c-2.92978-0.78508-5.86752-1.5406-8.79826-2.32217 C109.67463,233.11307,108.15738,232.67337,106.43475,232.19218z M86.40974,168.87924 c-0.15702-2.70633-0.23946-4.93591-0.42812-7.15654c-0.19745-2.32437-0.78839-4.56779-2.05368-6.54712 c-1.11974-1.75169-2.67041-3.07973-4.87994-2.9213c-2.36374,0.16946-3.88942,1.62991-4.79774,3.77943 c-0.73637,1.74266-0.88906,3.56923-0.609,5.39493c0.98174,6.3988,4.22626,11.42389,9.49678,15.13116 c1.80193,1.26746,2.7073,0.79286,2.90527-1.48087C86.23645,172.86023,86.31033,170.63112,86.40974,168.87924z M73.35059,226.01044 c0.20612,0.27855,0.54565,0.73732,0.88517,1.19609c0.45163-0.36395,0.96807-0.67403,1.33159-1.11122 c0.23273-0.27985,0.25076-0.74469,0.3464-1.13121c2.79716-11.3015,5.59366-22.60315,8.38193-33.90685 c0.1327-0.53786,0.3156-1.11282,0.23934-1.63614c-0.05504-0.37769-0.45757-0.91696-0.78632-0.9836 c-0.33759-0.06837-0.91254,0.25526-1.13286,0.57829c-0.29897,0.43843-0.38459,1.03325-0.51855,1.57167 c-2.79114,11.22098-5.57662,22.44334-8.36073,33.66606C73.62146,224.71738,73.53062,225.18721,73.35059,226.01044z M102.46574,167.50284c0.00571-2.41147-1.79803-3.95683-4.25984-3.62561c-2.02997,0.27312-3.4613,1.51393-4.72491,3.00063 c-2.26758,2.66783-3.37611,5.93129-4.59251,9.12529c-0.18507,0.48595-0.03958,1.26883,0.2509,1.72444 c0.42818,0.6716,1.17176,0.66055,1.92001,0.32069c3.42863-1.55746,6.68758-3.37819,9.33385-6.11295 C101.57642,170.71259,102.46095,169.30058,102.46574,167.50284z M3.12915,106.45482c0.48563-0.99666,0.80717-1.7095,1.17271-2.39902 c10.92623-20.61053,21.88357-41.20468,32.7404-61.85167c0.96051-1.82665,2.01858-2.40927,4.04981-2.39661 c39.24346,0.24445,78.48746,0.4029,117.73132,0.59174c14.94644,0.07191,29.89278,0.17567,44.83916,0.26409 c0.70982,0.0042,1.41972,0.00054,1.955,0.00054c0.22853,0.20815,0.30174,0.2489,0.33368,0.31093 c0.0349,0.06771,0.03914,0.15477,0.04271,0.23403c0.00346,0.0779,0.00656,0.16294-0.01955,0.23404 c-0.71547,1.94818-1.41594,3.90215-2.15627,5.8409c-7.51926,19.69115-15.04512,39.3798-22.60809,59.17103 C121.92604,106.45482,62.72263,106.45482,3.12915,106.45482z M127.67544,70.0771 c-0.01362-7.80246-4.52366-13.98446-11.94384-16.41094c-2.4266-0.79353-4.82146-1.6857-7.25692-2.44966 c-1.21014-0.37962-2.46617-0.68431-3.72379-0.82999c-10.86935-1.25923-20.24976,6.88061-22.18738,16.65887 c-1.44022,7.26819,1.16842,14.47366,7.07555,18.00314c4.60041,2.74872,9.76486,4.59274,15.00481,5.38118 C116.6247,92.23244,127.69657,82.19759,127.67544,70.0771z M46.16797,47.80125c-0.22858-0.33047-0.38982-0.82437-0.67125-0.90649 c-0.37833-0.11042-0.98619-0.04821-1.2501,0.20039c-0.44731,0.42144-0.73068,1.03133-1.03457,1.58842 c-8.52714,15.63264-17.04836,31.26851-25.56943,46.90446c-0.22911,0.42043-0.59781,0.83594-0.631,1.2742 c-0.04263,0.56343,0.18849,1.14757,0.30169,1.7228c0.53328-0.20744,1.16058-0.30406,1.57297-0.65398 c0.40039-0.33971,0.5884-0.93495,0.85565-1.4256c2.78825-5.11906,5.57182-10.24068,8.36028-15.35966 c5.69146-10.44828,11.38643-20.89466,17.07461-31.34476C45.51799,49.17428,45.81224,48.522,46.16797,47.80125z M183.62263,110.51367 c-0.02608,14.46225-0.05576,28.92448-0.078,43.38672c-0.05469,35.55684-0.10609,71.11368-0.15785,106.6705 c-0.0009,0.63907-0.07292,1.29385,0.04424,1.91174c0.0793,0.41815,0.34265,1.00146,0.67719,1.13992 c2.93706,1.2157,5.73628,2.85193,9.01631,3.07147c5.90633,0.39532,11.30489-1.13565,15.91786-4.78125 c4.44414-3.51215,8.64211-7.33791,12.91434-11.06477c3.39432-2.96107,6.92645-5.67589,11.36296-6.90274 c1.2193-0.3372,2.46008-0.59659,3.91075-0.94434c0.10498-48.55067,0.20197-97.06732,0.23914-145.91568 c-18.12132,3.70351-35.84344,7.32546-53.84677,11.00486C183.62279,109.08981,183.62393,109.80174,183.62263,110.51367z M2.40712,438.05157c0-59.29736,0-118.18066,0-177.3797c1.80017-0.23779,3.42112-0.53271,5.05493-0.65308 c5.544-0.40854,10.79452,0.77856,15.83031,3.05151c5.05854,2.28326,9.65503,5.28662,13.9468,8.79486 c2.90653,2.37589,5.83281,4.73737,8.8675,6.94409c3.31335,2.40933,6.97894,4.13971,10.94327,5.29068 c4.07085,1.18192,8.09894,1.14407,12.00118-0.34314c2.74044-1.04449,5.45506-2.32349,7.90694-3.91916 c3.67657-2.39282,7.12007-5.1452,10.64905-7.76303c5.04039-3.73911,10.37978-6.87225,16.53271-8.44363 c7.98038-2.03821,15.67857-1.54187,22.99975,2.46088c3.1524,1.72351,6.29895,3.45981,9.40923,5.25763 c3.68956,2.13254,7.52266,3.77701,11.75375,4.60007c4.7784,0.92947,9.01248-0.02802,12.96141-2.75339 c2.16829-1.49646,4.33684-3.01132,6.61835-4.32083c3.93805-2.26035,8.23288-3.38278,12.63654-3.65134 c0.19859,0.19003,0.25778,0.24219,0.31151,0.29947c0.05389,0.05743,0.13971,0.11584,0.14706,0.18112 c0.05336,0.47421,0.12796,0.95038,0.12729,1.42581c-0.08153,56.82715-0.16891,113.65424-0.26523,170.48138 c-0.00023,0.13528-0.13635,0.27042-0.22734,0.43979C121.2747,438.05157,61.91969,438.05157,2.40712,438.05157z M80.86254,37.71899 c5.26,0.45908,22.57874,0.30182,24.22836-0.20724c0-11.6307,0-23.2476,0-34.97384c-8.19938,0-16.23611,0-24.40323,0 C80.11305,5.821,80.2947,36.12901,80.86254,37.71899z M134.10094,37.85441c4.06789,0.48216,21.819,0.37988,23.59862-0.13926 c0-11.67064,0-23.36777,0-35.20994c-7.91066,0-15.68773,0-23.59862,0C134.10094,14.49273,134.10094,26.18452,134.10094,37.85441z M206.86917,37.24576c0.25601-6.86111,0.57903-13.721,0.71898-20.5846c0.06479-3.17797,0.03423-6.38237-1.11212-9.45684 c-1.23405-3.30977-3.04158-4.79346-6.59113-4.86447c-4.15051-0.08304-8.30434-0.00806-12.45659,0.01605 c-0.28964,0.00168-0.57841,0.14979-0.8177,0.21599c-0.50664,3.81508-0.31786,33.99804,0.2159,35.68575 c6.58875,0,13.18781,0,19.86865,0C206.76811,37.84617,206.85789,37.54742,206.86917,37.24576z M183.95346,105.70512 c17.1424-3.50605,33.72841-6.8983,50.31441-10.29056c0.02333-0.16158,0.04663-0.32315,0.06993-0.48472 c-13.35321-5.14508-26.70641-10.29017-40.35139-15.54767C190.61617,88.22448,187.3728,96.73389,183.95346,105.70512z M46.33591,2.444c-4.09976,0.11709-6.31834,1.86584-7.37562,5.84315c-0.24433,0.91916-0.37458,1.87764-0.46675,2.82682 c-0.79742,8.21246-0.3015,16.42444,0.05307,24.63536c0.02329,0.53944,0.18526,1.07289,0.30529,1.73341 c4.03189,0,7.98043,0,12.06462,0c0-11.67078,0-23.20226,0-35.04524C49.19393,2.4375,47.76386,2.40321,46.33591,2.444z M100.41055,85.47417c9.37166-0.86389,17.12052-9.60044,16.62753-19.01649c-0.40684-7.76989-5.71801-13.78633-14.42959-13.97486 c-9.67029-0.20928-18.09276,8.46294-18.14346,18.25428C84.24761,80.25877,92.17715,86.23312,100.41055,85.47417z M237.08496,245.50484c0,59.75267,0,119.19661,0,178.92235c-17.90529,4.36508-35.70541,8.70447-53.70421,13.09232 c0-57.32468,0-114.42117,0-171.7652c0.85254,0.30539,1.46136,0.45212,2.00403,0.72861 c8.83128,4.4993,17.09348,2.811,24.80101-2.59744c3.5826-2.51389,6.7663-5.5972,10.12358-8.43098 c2.50168-2.11165,4.91211-4.3412,7.50926-6.32726C230.45189,247.11351,233.49036,245.92918,237.08496,245.50484z M78.0693,37.63932 c0-11.7349,0-23.33681,0-35.19684c-8.30032,0.05375-16.45303-0.11521-24.6294,0.10405c0,11.77267,0,23.2431,0,35.09279 C61.77256,37.63932,69.86963,37.63932,78.0693,37.63932z M184.21101,38.14093c0.00049-11.95431,0.00243-23.79599-0.00607-35.64264 c-8.22586,0-16.09091,0-24.07779,0c0,11.87622,0,23.58058,0,35.64264C168.25287,38.14093,176.10884,38.14093,184.21101,38.14093z M131.2249,2.56045c-4.50182-0.4567-21.91423-0.24493-23.51025,0.26866c0,11.64709,0,23.27544,0,35.04211 c7.98032,0,15.78331,0,23.72787,0C131.92484,33.25892,131.72504,4.25143,131.2249,2.56045z M194.80557,77.2706 c13.8241,5.31949,27.32455,10.51446,40.825,15.70941c0.09647-0.13155,0.19289-0.26311,0.28934-0.39466 c-9.18858-16.58312-18.37717-33.16623-27.80882-50.18803C203.56247,54.31912,199.20686,65.73502,194.80557,77.2706z M83.38597,159.92189c-0.18826-0.92691-0.51691-1.8488-0.92876-2.70157c-0.67326-1.3942-1.55676-2.68358-3.32649-2.68756 c-1.40273-0.00319-2.72187,1.54111-3.14546,3.47906c-0.05082,0.23251-0.08837,0.47174-0.09707,0.70912 c-0.23878,6.49089,2.76784,11.36044,7.73721,15.28651C84.07217,169.22066,84.32627,164.55177,83.38597,159.92189z M99.17017,169.87572c1.19614-1.45477,1.36163-2.70007,0.59504-3.42816c-0.76023-0.72209-2.00535-0.53293-3.43365,0.6848 c-2.37514,2.02478-3.62877,4.73499-4.4585,7.73566C94.66674,173.63689,97.25167,172.20898,99.17017,169.87572z M116.29134,85.11473 c0.45851,0.11382,1.13303-0.03608,1.51611-0.32245c2.64225-1.97531,4.7101-4.41901,6.07342-7.66328 c-2.07686-0.82374-3.97358-1.57601-5.63104-2.23342c-2.25871,2.9941-4.38543,5.81322-6.64636,8.81024 C113.14057,84.17997,114.6981,84.71932,116.29134,85.11473z M125.32214,68.58788c-0.03478-0.45963-0.40825-1.1152-0.79919-1.28772 c-1.63671-0.72231-3.33935-1.2952-5.10345-1.95486c-0.2353,2.63302-0.44431,4.9717-0.66945,7.49107 c1.85491,0.7119,3.74779,1.43835,5.81968,2.23352C125.47108,72.70167,125.47767,70.64215,125.32214,68.58788z M124.36103,64.33277 c-1.58843-3.8641-4.26426-6.58634-8.43292-8.14067c0.96568,2.11475,1.74821,3.93876,2.63824,5.70871 c0.2591,0.51524,0.75008,1.04333,1.26537,1.27518c1.35794,0.61094,2.78765,1.06244,4.18877,1.57744 C124.13402,64.61321,124.24751,64.47299,124.36103,64.33277z M109.67428,85.27992c-0.40462-0.12247-0.93643-0.07413-1.33707,0.08246 c-1.82989,0.71519-3.6338,1.49673-5.78204,2.39437c3.98757,1.08849,7.56895,0.84176,11.09856-1.09495 C112.32961,86.19336,111.0172,85.68633,109.67428,85.27992z M0.3286,272.8024c0-33.40977-0.00837-66.81956,0.00315-100.22937 c0.00685-19.90164,0.04493-39.80328,0.06892-59.70493c0.00059-0.47958,0.07662-0.97369-0.01165-1.43639 c-0.63936-3.35072,0.6123-6.15808,2.16041-9.05132c11.00528-20.56736,21.89346-41.19735,32.85671-61.78727 c0.81314-1.52717,1.25268-2.98446,1.11737-4.76344c-0.61238-8.05025-0.96087-16.11239-0.36472-24.18457 c0.17785-2.40806,0.57836-4.74623,1.78596-6.89751c1.33793-2.38343,3.26646-3.95545,6.00372-4.2656 c2.21571-0.25106,4.45697-0.3829,6.68702-0.38483c26.8543-0.02315,53.7086,0.00247,80.56291-0.01476 C153.41823,0.06813,175.63805,0.00255,197.85785,0c1.66066-0.00019,3.33577,0.23862,4.97864,0.51702 c2.38625,0.40438,3.98341,1.8804,5.02446,4.02954c1.13251,2.33795,1.83366,4.81503,1.81662,7.38845 c-0.0439,6.62911-0.01756,13.27151-0.44484,19.88109c-0.32498,5.02785,0.61066,9.39178,3.17679,13.85185 c8.68451,15.09376,16.93602,30.43611,25.43922,45.63523c1.32922,2.37591,1.9922,4.69636,1.95108,7.46328 c-0.17699,11.90773-0.1474,23.81866-0.17415,35.72847c-0.03394,15.10619-0.05504,30.2124-0.07204,45.31862 c-0.05341,47.47717-0.10645,94.95436-0.15164,142.43153c-0.03165,33.24982-0.04742,66.49966-0.07761,99.74948 c-0.00478,5.23328,0.05931,4.25174-4.15511,5.27084c-16.83798,4.07184-33.67818,8.13522-50.49242,12.30325 c-2.43488,0.60355-4.82799,0.89822-7.31842,0.89465c-55.23004-0.07953-110.46011-0.13443-165.69017-0.19287 c-2.87736-0.00305-5.75613,0.06189-8.63169-0.00854c-2.95293-0.07224-3.04044-0.2121-3.03648-3.20749 c0.03324-25.09738,0.08668-50.19476,0.10199-75.29214c0.01811-29.65326,0.00426-59.30655,0.00426-88.95984 C0.18043,272.80243,0.25453,272.80243,0.3286,272.8024z M2.40712,438.05157c59.51257,0,118.86758,0,178.205,0 c0.09099-0.16937,0.22711-0.3045,0.22734-0.43979c0.09631-56.82715,0.1837-113.65424,0.26523-170.48138 c0.00067-0.47543-0.07393-0.9516-0.12729-1.42581c-0.00735-0.06528-0.09317-0.12369-0.14706-0.18112 c-0.05373-0.05728-0.11292-0.10944-0.31151-0.29947c-4.40366,0.26855-8.69849,1.39099-12.63654,3.65134 c-2.28151,1.30951-4.45006,2.82437-6.61835,4.32083c-3.94893,2.72537-8.18301,3.68286-12.96141,2.75339 c-4.23109-0.82306-8.06419-2.46753-11.75375-4.60007c-3.11028-1.79782-6.25682-3.53412-9.40923-5.25763 c-7.32117-4.00275-15.01936-4.49908-22.99975-2.46088c-6.15293,1.57138-11.49232,4.70453-16.53271,8.44363 c-3.52898,2.61783-6.97247,5.37021-10.64905,7.76303c-2.45188,1.59567-5.1665,2.87466-7.90694,3.91916 c-3.90224,1.48721-7.93032,1.52505-12.00118,0.34314c-3.96433-1.15097-7.62992-2.88135-10.94327-5.29068 c-3.03469-2.20673-5.96097-4.56821-8.8675-6.94409c-4.29177-3.50824-8.88826-6.5116-13.9468-8.79486 c-5.0358-2.27295-10.28631-3.46005-15.83031-3.05151c-1.63381,0.12036-3.25476,0.41528-5.05493,0.65308 C2.40712,319.87091,2.40712,378.75421,2.40712,438.05157z M181.12289,262.77878c0.05811-51.39488,0.21826-102.5816,0.22769-153.7328 c-5.20987-0.51582-176.40695-0.4236-178.40201,0.0603c-0.50592,2.39796-0.59479,147.16792-0.05716,149.0977 c1.00559-0.10403,2.03468-0.1987,3.06082-0.31879c3.44417-0.40295,6.86507-0.24643,10.24993,0.48672 c7.74415,1.6774,14.42877,5.50903,20.62367,10.28635c2.72062,2.09805,5.32986,4.33994,8.03172,6.46301 c2.9002,2.27884,6.03527,4.16574,9.42642,5.65518c5.96295,2.61899,11.80426,2.3913,17.55823-0.55991 c1.48899-0.76373,2.97026-1.57965,4.33405-2.54297c3.13179-2.21207,6.22919-4.47754,9.26645-6.81754 c3.75269-2.89117,7.69096-5.49646,12.0571-7.31821c10.30071-4.29788,20.59909-4.86871,30.7434,0.56052 c2.9565,1.58231,5.82307,3.33685,8.80991,4.85715c2.9063,1.47931,5.82878,3.00351,8.8958,4.07349 c5.39764,1.88306,10.55019,1.29364,15.11142-2.46634c0.55333-0.45618,1.17188-0.83325,1.7599-1.24747 c3.96599-2.79318,8.26726-4.83936,13.05432-5.75635C177.51166,263.24527,179.17418,263.06406,181.12289,262.77878z M3.12915,106.45482c59.59348,0,118.79689,0,178.08089,0c7.56297-19.79123,15.08884-39.47987,22.60809-59.17103 c0.74033-1.93876,1.4408-3.89273,2.15627-5.8409c0.02611-0.07111,0.02301-0.15615,0.01955-0.23404 c-0.00357-0.07926-0.00781-0.16632-0.04271-0.23403c-0.03194-0.06203-0.10515-0.10278-0.33368-0.31093 c-0.53528,0-1.24518,0.00366-1.955-0.00054c-14.94638-0.08842-29.89272-0.19218-44.83916-0.26409 c-39.24386-0.18883-78.48786-0.34729-117.73132-0.59174c-2.03123-0.01266-3.0893,0.56995-4.04981,2.39661 c-10.85684,20.647-21.81417,41.24114-32.7404,61.85167C3.93632,104.74532,3.61478,105.45816,3.12915,106.45482z M237.08496,245.50484c-3.5946,0.42435-6.63307,1.60867-9.26633,3.62239c-2.59715,1.98605-5.00758,4.21561-7.50926,6.32726 c-3.35728,2.83379-6.54099,5.9171-10.12358,8.43098c-7.70753,5.40845-15.96973,7.09674-24.80101,2.59744 c-0.54266-0.27649-1.15149-0.42322-2.00403-0.72861c0,57.34402,0,114.44052,0,171.7652 c17.99879-4.38785,35.79892-8.72723,53.70421-13.09232C237.08496,364.70145,237.08496,305.25751,237.08496,245.50484z M183.62279,108.09011c0,0.9997,0.00114,1.71163-0.00015,2.42356c-0.02608,14.46225-0.05576,28.92448-0.078,43.38672 c-0.05469,35.55684-0.10609,71.11368-0.15785,106.6705c-0.0009,0.63907-0.07292,1.29385,0.04424,1.91174 c0.0793,0.41815,0.34265,1.00146,0.67719,1.13992c2.93706,1.2157,5.73628,2.85193,9.01631,3.07147 c5.90633,0.39532,11.30489-1.13565,15.91786-4.78125c4.44414-3.51215,8.64211-7.33791,12.91434-11.06477 c3.39432-2.96107,6.92645-5.67589,11.36296-6.90274c1.2193-0.3372,2.46008-0.59659,3.91075-0.94434 c0.10498-48.55067,0.20197-97.06732,0.23914-145.91568C219.34824,100.78876,201.62611,104.41071,183.62279,108.09011z M80.68767,2.53791C80.11305,5.821,80.2947,36.12901,80.86254,37.71899c5.26,0.45908,22.57874,0.30182,24.22836-0.20724 c0-11.6307,0-23.2476,0-34.97384C96.89152,2.53791,88.85478,2.53791,80.68767,2.53791z M53.4399,37.63932 c8.33266,0,16.42973,0,24.6294,0c0-11.7349,0-23.33681,0-35.19684c-8.30032,0.05375-16.45303-0.11521-24.6294,0.10405 C53.4399,14.3192,53.4399,25.78964,53.4399,37.63932z M160.12715,38.14093c8.12572,0,15.98169,0,24.08386,0 c0.00049-11.95431,0.00243-23.79599-0.00607-35.64264c-8.22586,0-16.09091,0-24.07779,0 C160.12715,14.37451,160.12715,26.07888,160.12715,38.14093z M131.44252,37.87123c0.48232-4.61231,0.28252-33.6198-0.21762-35.31078 c-4.50182-0.4567-21.91423-0.24493-23.51025,0.26866c0,11.64709,0,23.27544,0,35.04211 C115.69498,37.87123,123.49796,37.87123,131.44252,37.87123z M134.10094,2.50522c0,11.98752,0,23.67931,0,35.3492 c4.06789,0.48216,21.819,0.37988,23.59862-0.13926c0-11.67064,0-23.36777,0-35.20994 C149.78889,2.50522,142.01183,2.50522,134.10094,2.50522z M208.11108,42.39732 c-4.54861,11.92181-8.90422,23.33771-13.30551,34.87328c13.8241,5.31949,27.32455,10.51446,40.825,15.70941 c0.09647-0.13155,0.19289-0.26311,0.28934-0.39466C226.73132,76.00223,217.54274,59.41912,208.11108,42.39732z M206.69516,38.25764 c0.07295-0.41147,0.16273-0.71022,0.17401-1.01188c0.25601-6.86111,0.57903-13.721,0.71898-20.5846 c0.06479-3.17797,0.03423-6.38237-1.11212-9.45684c-1.23405-3.30977-3.04158-4.79346-6.59113-4.86447 c-4.15051-0.08304-8.30434-0.00806-12.45659,0.01605c-0.28964,0.00168-0.57841,0.14979-0.8177,0.21599 c-0.50664,3.81508-0.31786,33.99804,0.2159,35.68575C193.41525,38.25764,200.01431,38.25764,206.69516,38.25764z M193.9864,79.38218 c-3.37024,8.8423-6.6136,17.35172-10.03294,26.32294c17.1424-3.50605,33.72841-6.8983,50.31441-10.29056 c0.02333-0.16158,0.04663-0.32315,0.06993-0.48472C220.98459,89.78477,207.63139,84.63968,193.9864,79.38218z M50.91652,2.4375 c-1.7226,0-3.15266-0.03429-4.58061,0.0065c-4.09976,0.11709-6.31834,1.86584-7.37562,5.84315 c-0.24433,0.91916-0.37458,1.87764-0.46675,2.82682c-0.79742,8.21246-0.3015,16.42444,0.05307,24.63536 c0.02329,0.53944,0.18526,1.07289,0.30529,1.73341c4.03189,0,7.98043,0,12.06462,0 C50.91652,25.81196,50.91652,14.28048,50.91652,2.4375z M18.4983,199.56123c0.61758,0.8887,1.23986,1.77414,1.852,2.6666 c5.0629,7.38158,10.12262,14.76534,15.18755,22.14552c0.49342,0.71896,1.00041,1.72505,1.99013,1.36444 c0.60144-0.21915,0.97494-1.11351,1.40171-1.73808c0.17367-0.25412,0.21541-0.59779,0.32018-0.89966 c2.59338-7.47182,5.18531-14.94417,7.78377-22.4142c0.24954-0.71741,0.53996-1.42061,0.81142-2.1304 c0.69729,2.22797,0.95704,4.41177,1.19283,6.59811c0.91655,8.49867,1.82327,16.9984,2.74254,25.49678 c0.0596,0.55075,0.05126,1.18918,0.33515,1.6118c0.26153,0.38939,0.90007,0.7758,1.32448,0.72888 c0.36021-0.03981,0.82835-0.65866,0.93081-1.09579c0.1401-0.5976,0.01285-1.26959-0.05808-1.90318 c-1.3772-12.30666-2.76233-24.6124-4.14884-36.918c-0.05354-0.47537-0.02649-1.0061-0.23843-1.40369 c-0.19291-0.36182-0.64334-0.77133-1.01131-0.80339c-0.37487-0.03264-0.91394,0.27722-1.15258,0.604 c-0.3163,0.4332-0.41539,1.0267-0.59993,1.55411c-3.08733,8.8226-6.17134,17.6463-9.26313,26.46733 c-0.27807,0.79337-0.60448,1.56976-1.01457,2.62788c-0.68175-0.89601-1.18119-1.50464-1.62948-2.14885 c-5.52341-7.93785-11.0376-15.88211-16.56092-23.82005c-0.40923-0.58813-0.79521-1.22641-1.32524-1.68855 c-0.78193-0.68184-1.83416-0.24182-1.90207,0.79282c-0.05162,0.7868,0.08621,1.59282,0.19629,2.38242 c1.39001,9.97101,2.78944,19.94073,4.18861,29.91048c0.33312,2.37361,0.65145,4.74971,1.02467,7.11705 c0.12143,0.77022,0.60129,1.48026,1.44227,1.16878c0.3936-0.14581,0.56479-0.96719,0.76973-1.50778 c0.07498-0.1978-0.04021-0.4697-0.07499-0.70685c-0.99666-6.79901-1.998-13.59731-2.99014-20.39697 c-0.65423-4.48376-1.29541-8.96942-1.94242-13.45424C18.21965,199.69946,18.35898,199.63034,18.4983,199.56123z M147.62601,212.03041c4.38855-5.48665,8.78877-10.96391,13.17853-16.44958c0.44759-0.5593,0.94934-1.11148,1.23071-1.75262 c0.1447-0.32977-0.00389-1.02493-0.27095-1.23357c-0.27936-0.21823-0.9698-0.21913-1.28387-0.01399 c-0.51437,0.33595-0.8903,0.89885-1.2888,1.39478c-4.35088,5.41454-8.69275,10.83633-13.04361,16.2509 c-0.47833,0.59525-0.99747,1.1577-1.75259,2.02975c-0.18648-0.81873-0.3149-1.24524-0.3781-1.68123 c-0.76723-5.2903-1.51718-10.58307-2.28918-15.87267c-0.26845-1.83939-0.73599-2.51236-1.52007-2.20285 c-1.25134,0.49402-0.80841,1.53238-0.67729,2.46193c1.53812,10.90298,3.07056,21.80682,4.60492,32.71034 c0.15565,1.10619,0.30432,2.2135,0.47514,3.31735c0.08533,0.55164,0.0975,1.16154,0.35701,1.62514 c0.22842,0.40796,0.75514,0.64894,1.1501,0.96365c0.2981-0.40408,0.87817-0.83098,0.84761-1.20847 c-0.17351-2.14386-0.47844-4.27792-0.7663-6.41159c-0.42422-3.14476-0.87164-6.28644-1.35858-9.78412 c1.07944,0.46008,1.80424,0.74706,2.51073,1.07365c5.06862,2.34326,10.13298,4.69568,15.19984,7.04279 c2.4612,1.14012,4.91618,2.29425,7.39307,3.39935c0.65054,0.29031,1.45738,0.54712,1.88504-0.31671 c0.41656-0.84137-0.1757-1.33136-0.86304-1.68356c-0.49669-0.25446-1.00587-0.48483-1.51251-0.71941 c-6.94951-3.21771-13.90079-6.43167-20.84779-9.65477c-0.77399-0.35912-1.52464-0.76854-2.46336-1.24446 C146.71062,213.28603,147.14117,212.63651,147.62601,212.03041z M106.87222,229.97453 c2.44082-10.49889,4.88699-20.99654,7.33057-31.49481c0.12675-0.54457,0.38305-1.10873,0.32154-1.63364 c-0.06378-0.54466-0.30693-1.30647-0.71105-1.51979c-0.68131-0.35962-1.17015,0.2276-1.38683,0.90134 c-0.17099,0.53154-0.30322,1.07671-0.42947,1.62122c-2.61517,11.27834-5.22874,22.55708-7.83797,33.83679 c-0.45629,1.9725-0.3456,2.23033,1.51261,2.7272c4.70364,1.25761,9.41962,2.46909,14.13264,3.69144 c0.38223,0.09912,0.82662,0.28114,1.15768,0.17096c0.38828-0.12927,0.81664-0.47903,0.97355-0.84273 c0.10457-0.24236-0.13905-0.81618-0.39724-0.99348c-0.44218-0.30365-1.00684-0.45412-1.53938-0.5968 c-2.92978-0.78508-5.86752-1.5406-8.79826-2.32217c-1.52599-0.40698-3.04324-0.84668-4.76587-1.32787 C106.62582,231.21706,106.72887,230.59109,106.87222,229.97453z M86.40974,168.87924 c-0.09941,1.75188-0.17329,3.98099-0.36644,6.19971c-0.19798,2.27373-1.10335,2.74832-2.90527,1.48087 c-5.27052-3.70728-8.51504-8.73236-9.49678-15.13116c-0.28006-1.8257-0.12737-3.65227,0.609-5.39493 c0.90833-2.14952,2.43401-3.60997,4.79774-3.77943c2.20953-0.15843,3.76021,1.1696,4.87994,2.9213 c1.26529,1.97932,1.85623,4.22275,2.05368,6.54712C86.17029,163.94333,86.25272,166.17291,86.40974,168.87924z M83.6254,174.00746 c0.44677-4.7868,0.70087-9.45569-0.23943-14.08557c-0.18826-0.92691-0.51691-1.8488-0.92876-2.70157 c-0.67326-1.3942-1.55676-2.68358-3.32649-2.68756c-1.40273-0.00319-2.72187,1.54111-3.14546,3.47906 c-0.05082,0.23251-0.08837,0.47174-0.09707,0.70912C75.64941,165.21184,78.65603,170.08139,83.6254,174.00746z M74.23576,227.20653 c0.45163-0.36395,0.96807-0.67403,1.33159-1.11122c0.23273-0.27985,0.25076-0.74469,0.3464-1.13121 c2.79716-11.3015,5.59366-22.60315,8.38193-33.90685c0.1327-0.53786,0.3156-1.11282,0.23934-1.63614 c-0.05504-0.37769-0.45757-0.91696-0.78632-0.9836c-0.33759-0.06837-0.91254,0.25526-1.13286,0.57829 c-0.29897,0.43843-0.38459,1.03325-0.51855,1.57167c-2.79114,11.22098-5.57662,22.44334-8.36073,33.66606 c-0.1151,0.46384-0.20594,0.93367-0.38597,1.7569C73.55671,226.28899,73.89625,226.74776,74.23576,227.20653z M102.46595,167.50293 c-0.005,1.79765-0.88953,3.20966-2.07271,4.4324c-2.64626,2.73476-5.90522,4.55548-9.33385,6.11295 c-0.74825,0.33986-1.49183,0.35091-1.92001-0.32069c-0.29048-0.45561-0.43597-1.23849-0.2509-1.72444 c1.2164-3.194,2.32493-6.45746,4.59251-9.12529c1.26362-1.48669,2.69495-2.72751,4.72491-3.00063 C100.66771,163.54601,102.47145,165.09137,102.46595,167.50293z M91.87305,174.86801 c2.79369-1.23112,5.37862-2.65903,7.29711-4.99229c1.19614-1.45477,1.36163-2.70007,0.59504-3.42816 c-0.76023-0.72209-2.00535-0.53293-3.43365,0.6848C93.95641,169.15714,92.70278,171.86734,91.87305,174.86801z M127.67544,70.0771 c0.02113,12.12048-11.05074,22.15534-23.03157,20.35259c-5.23995-0.78844-10.4044-2.63246-15.00481-5.38118 c-5.90713-3.52947-8.51577-10.73495-7.07555-18.00314c1.93761-9.77826,11.31803-17.91809,22.18738-16.65887 c1.25762,0.14568,2.51366,0.45037,3.72379,0.82999c2.43546,0.76397,4.83032,1.65613,7.25692,2.44966 C123.15178,56.09264,127.66182,62.27464,127.67544,70.0771z M84.46503,70.7371c-0.21741,9.52168,7.71212,15.49603,15.94552,14.73707 c9.37166-0.86389,17.12052-9.60044,16.62753-19.01649c-0.40684-7.76989-5.71801-13.78633-14.42959-13.97486 C92.93819,52.27354,84.51572,60.94576,84.46503,70.7371z M111.60345,83.70583c1.53712,0.47414,3.09464,1.0135,4.68788,1.40891 c0.45851,0.11382,1.13303-0.03608,1.51611-0.32245c2.64225-1.97531,4.7101-4.41901,6.07342-7.66328 c-2.07686-0.82374-3.97358-1.57601-5.63104-2.23342C115.9911,77.88969,113.86439,80.70881,111.60345,83.70583z M124.56973,75.06989 c0.90136-2.36823,0.90794-4.42774,0.75242-6.48201c-0.03478-0.45963-0.40825-1.1152-0.79919-1.28772 c-1.63671-0.72231-3.33935-1.2952-5.10345-1.95486c-0.2353,2.63302-0.44431,4.9717-0.66945,7.49107 C120.60496,73.54827,122.49783,74.27473,124.56973,75.06989z M124.02049,64.75343c0.11353-0.14021,0.22702-0.28043,0.34054-0.42065 c-1.58843-3.8641-4.26426-6.58634-8.43292-8.14067c0.96568,2.11475,1.74821,3.93876,2.63824,5.70871 c0.2591,0.51524,0.75008,1.04333,1.26537,1.27518C121.18967,63.78692,122.61938,64.23842,124.02049,64.75343z M113.65374,86.6618 c-1.32413-0.46844-2.63654-0.97548-3.97946-1.38188c-0.40462-0.12247-0.93643-0.07413-1.33707,0.08246 c-1.82989,0.71519-3.6338,1.49673-5.78204,2.39437C106.54275,88.84524,110.12412,88.59851,113.65374,86.6618z M45.49672,46.89476 c-0.37833-0.11042-0.98619-0.04821-1.2501,0.20039c-0.44731,0.42144-0.73068,1.03133-1.03457,1.58842 c-8.52714,15.63264-17.04836,31.26851-25.56943,46.90446c-0.22911,0.42043-0.59781,0.83594-0.631,1.2742 c-0.04263,0.56343,0.18849,1.14757,0.30169,1.7228c0.53328-0.20744,1.16058-0.30406,1.57297-0.65398 c0.40039-0.33971,0.5884-0.93495,0.85565-1.4256c2.78825-5.11906,5.57182-10.24068,8.36028-15.35966 c5.69146-10.44828,11.38643-20.89466,17.07461-31.34476c0.34117-0.62675,0.63543-1.27903,0.99115-1.99977 C45.93939,47.47079,45.77815,46.97689,45.49672,46.89476z" fill="inherit"/></g><g id="change2_1"><path d="M181.12289,262.77878c-1.94872,0.28528-3.61124,0.46649-5.24835,0.78006 c-4.78706,0.91699-9.08833,2.96317-13.05432,5.75635c-0.58803,0.41422-1.20657,0.79129-1.7599,1.24747 c-4.56123,3.75998-9.71378,4.3494-15.11142,2.46634c-3.06702-1.06998-5.9895-2.59418-8.8958-4.07349 c-2.98683-1.52029-5.85341-3.27484-8.80991-4.85715c-10.14431-5.42923-20.44269-4.8584-30.7434-0.56052 c-4.36613,1.82175-8.30441,4.42703-12.0571,7.31821c-3.03726,2.34-6.13466,4.60547-9.26645,6.81754 c-1.36379,0.96332-2.84506,1.77924-4.33405,2.54297c-5.75397,2.9512-11.59528,3.17889-17.55823,0.55991 c-3.39115-1.48944-6.52622-3.37634-9.42642-5.65518c-2.70185-2.12308-5.3111-4.36496-8.03172-6.46301 c-6.19489-4.77731-12.87952-8.60895-20.62367-10.28635c-3.38486-0.73315-6.80576-0.88968-10.24993-0.48672 c-1.02614,0.12009-2.05523,0.21475-3.06082,0.31879c-0.53764-1.92978-0.44876-146.69974,0.05716-149.0977 c1.99506-0.4839,173.19214-0.57612,178.40201-0.0603C181.34116,160.19717,181.181,211.3839,181.12289,262.77878z M18.08032,199.76854c0.13933-0.06908,0.27865-0.1382,0.41798-0.20731c0.61758,0.8887,1.23986,1.77414,1.852,2.6666 c5.0629,7.38158,10.12262,14.76534,15.18755,22.14552c0.49342,0.71896,1.00041,1.72505,1.99013,1.36444 c0.60144-0.21915,0.97494-1.11351,1.40171-1.73808c0.17367-0.25412,0.21541-0.59779,0.32018-0.89966 c2.59338-7.47182,5.18531-14.94417,7.78377-22.4142c0.24954-0.71741,0.53996-1.42061,0.81142-2.1304 c0.69729,2.22797,0.95704,4.41177,1.19283,6.59811c0.91655,8.49867,1.82327,16.9984,2.74254,25.49678 c0.0596,0.55075,0.05126,1.18918,0.33515,1.6118c0.26153,0.38939,0.90007,0.7758,1.32448,0.72888 c0.36021-0.03981,0.82835-0.65866,0.93081-1.09579c0.1401-0.5976,0.01285-1.26959-0.05808-1.90318 c-1.3772-12.30666-2.76233-24.6124-4.14884-36.918c-0.05354-0.47537-0.02649-1.0061-0.23843-1.40369 c-0.19291-0.36182-0.64334-0.77133-1.01131-0.80339c-0.37487-0.03264-0.91394,0.27722-1.15258,0.604 c-0.3163,0.4332-0.41539,1.0267-0.59993,1.55411c-3.08733,8.8226-6.17134,17.6463-9.26313,26.46733 c-0.27807,0.79337-0.60448,1.56976-1.01457,2.62788c-0.68175-0.89601-1.18119-1.50464-1.62948-2.14885 c-5.52341-7.93785-11.0376-15.88211-16.56092-23.82005c-0.40923-0.58813-0.79521-1.22641-1.32524-1.68855 c-0.78193-0.68184-1.83416-0.24182-1.90207,0.79282c-0.05162,0.7868,0.08621,1.59282,0.19629,2.38242 c1.39001,9.97101,2.78944,19.94073,4.18861,29.91048c0.33312,2.37361,0.65145,4.74971,1.02467,7.11705 c0.12143,0.77022,0.60129,1.48026,1.44227,1.16878c0.3936-0.14581,0.56479-0.96719,0.76973-1.50778 c0.07498-0.1978-0.04021-0.4697-0.07499-0.70685c-0.99666-6.79901-1.998-13.59731-2.99014-20.39697 C19.36852,208.73901,18.72734,204.25336,18.08032,199.76854z M146.14265,214.07045c0.56796-0.78442,0.99852-1.43394,1.48335-2.04004 c4.38855-5.48665,8.78877-10.96391,13.17853-16.44958c0.44759-0.5593,0.94934-1.11148,1.23071-1.75262 c0.1447-0.32977-0.00389-1.02493-0.27095-1.23357c-0.27936-0.21823-0.9698-0.21913-1.28387-0.01399 c-0.51437,0.33595-0.8903,0.89885-1.2888,1.39478c-4.35088,5.41454-8.69275,10.83633-13.04361,16.2509 c-0.47833,0.59525-0.99747,1.1577-1.75259,2.02975c-0.18648-0.81873-0.3149-1.24524-0.3781-1.68123 c-0.76723-5.2903-1.51718-10.58307-2.28918-15.87267c-0.26845-1.83939-0.73599-2.51236-1.52007-2.20285 c-1.25134,0.49402-0.80841,1.53238-0.67729,2.46193c1.53812,10.90298,3.07056,21.80682,4.60492,32.71034 c0.15565,1.10619,0.30432,2.2135,0.47514,3.31735c0.08533,0.55164,0.0975,1.16154,0.35701,1.62514 c0.22842,0.40796,0.75514,0.64894,1.1501,0.96365c0.2981-0.40408,0.87817-0.83098,0.84761-1.20847 c-0.17351-2.14386-0.47844-4.27792-0.7663-6.41159c-0.42422-3.14476-0.87164-6.28644-1.35858-9.78412 c1.07944,0.46008,1.80424,0.74706,2.51073,1.07365c5.06862,2.34326,10.13298,4.69568,15.19984,7.04279 c2.4612,1.14012,4.91618,2.29425,7.39307,3.39935c0.65054,0.29031,1.45738,0.54712,1.88504-0.31671 c0.41656-0.84137-0.1757-1.33136-0.86304-1.68356c-0.49669-0.25446-1.00587-0.48483-1.51251-0.71941 c-6.94951-3.21771-13.90079-6.43167-20.84779-9.65477C147.83203,214.9558,147.08138,214.54637,146.14265,214.07045z M106.43475,232.19218c0.19107-0.97513,0.29411-1.60109,0.43747-2.21765c2.44082-10.49889,4.88699-20.99654,7.33057-31.49481 c0.12675-0.54457,0.38305-1.10873,0.32154-1.63364c-0.06378-0.54466-0.30693-1.30647-0.71105-1.51979 c-0.68131-0.35962-1.17015,0.2276-1.38683,0.90134c-0.17099,0.53154-0.30322,1.07671-0.42947,1.62122 c-2.61517,11.27834-5.22874,22.55708-7.83797,33.83679c-0.45629,1.9725-0.3456,2.23033,1.51261,2.7272 c4.70364,1.25761,9.41962,2.46909,14.13264,3.69144c0.38223,0.09912,0.82662,0.28114,1.15768,0.17096 c0.38828-0.12927,0.81664-0.47903,0.97355-0.84273c0.10457-0.24236-0.13905-0.81618-0.39724-0.99348 c-0.44218-0.30365-1.00684-0.45412-1.53938-0.5968c-2.92978-0.78508-5.86752-1.5406-8.79826-2.32217 C109.67463,233.11307,108.15738,232.67337,106.43475,232.19218z M86.40974,168.87924 c-0.15702-2.70633-0.23946-4.93591-0.42812-7.15654c-0.19745-2.32437-0.78839-4.56779-2.05368-6.54712 c-1.11974-1.75169-2.67041-3.07973-4.87994-2.9213c-2.36374,0.16946-3.88942,1.62991-4.79774,3.77943 c-0.73637,1.74266-0.88906,3.56923-0.609,5.39493c0.98174,6.3988,4.22626,11.42389,9.49678,15.13116 c1.80193,1.26746,2.7073,0.79286,2.90527-1.48087C86.23645,172.86023,86.31033,170.63112,86.40974,168.87924z M73.35059,226.01044 c0.20612,0.27855,0.54565,0.73732,0.88517,1.19609c0.45163-0.36395,0.96807-0.67403,1.33159-1.11122 c0.23273-0.27985,0.25076-0.74469,0.3464-1.13121c2.79716-11.3015,5.59366-22.60315,8.38193-33.90685 c0.1327-0.53786,0.3156-1.11282,0.23934-1.63614c-0.05504-0.37769-0.45757-0.91696-0.78632-0.9836 c-0.33759-0.06837-0.91254,0.25526-1.13286,0.57829c-0.29897,0.43843-0.38459,1.03325-0.51855,1.57167 c-2.79114,11.22098-5.57662,22.44334-8.36073,33.66606C73.62146,224.71738,73.53062,225.18721,73.35059,226.01044z M102.46574,167.50284c0.00571-2.41147-1.79803-3.95683-4.25984-3.62561c-2.02997,0.27312-3.4613,1.51393-4.72491,3.00063 c-2.26758,2.66783-3.37611,5.93129-4.59251,9.12529c-0.18507,0.48595-0.03958,1.26883,0.2509,1.72444 c0.42818,0.6716,1.17176,0.66055,1.92001,0.32069c3.42863-1.55746,6.68758-3.37819,9.33385-6.11295 C101.57642,170.71259,102.46095,169.30058,102.46574,167.50284z M3.12915,106.45482c0.48563-0.99666,0.80717-1.7095,1.17271-2.39902 c10.92623-20.61053,21.88357-41.20468,32.7404-61.85167c0.96051-1.82665,2.01858-2.40927,4.04981-2.39661 c39.24346,0.24445,78.48746,0.4029,117.73132,0.59174c14.94644,0.07191,29.89278,0.17567,44.83916,0.26409 c0.70982,0.0042,1.41972,0.00054,1.955,0.00054c0.22853,0.20815,0.30174,0.2489,0.33368,0.31093 c0.0349,0.06771,0.03914,0.15477,0.04271,0.23403c0.00346,0.0779,0.00656,0.16294-0.01955,0.23404 c-0.71547,1.94818-1.41594,3.90215-2.15627,5.8409c-7.51926,19.69115-15.04512,39.3798-22.60809,59.17103 C121.92604,106.45482,62.72263,106.45482,3.12915,106.45482z M127.67544,70.0771 c-0.01362-7.80246-4.52366-13.98446-11.94384-16.41094c-2.4266-0.79353-4.82146-1.6857-7.25692-2.44966 c-1.21014-0.37962-2.46617-0.68431-3.72379-0.82999c-10.86935-1.25923-20.24976,6.88061-22.18738,16.65887 c-1.44022,7.26819,1.16842,14.47366,7.07555,18.00314c4.60041,2.74872,9.76486,4.59274,15.00481,5.38118 C116.6247,92.23244,127.69657,82.19759,127.67544,70.0771z M46.16797,47.80125c-0.22858-0.33047-0.38982-0.82437-0.67125-0.90649 c-0.37833-0.11042-0.98619-0.04821-1.2501,0.20039c-0.44731,0.42144-0.73068,1.03133-1.03457,1.58842 c-8.52714,15.63264-17.04836,31.26851-25.56943,46.90446c-0.22911,0.42043-0.59781,0.83594-0.631,1.2742 c-0.04263,0.56343,0.18849,1.14757,0.30169,1.7228c0.53328-0.20744,1.16058-0.30406,1.57297-0.65398 c0.40039-0.33971,0.5884-0.93495,0.85565-1.4256c2.78825-5.11906,5.57182-10.24068,8.36028-15.35966 c5.69146-10.44828,11.38643-20.89466,17.07461-31.34476C45.51799,49.17428,45.81224,48.522,46.16797,47.80125z M183.62263,110.51367 c-0.02608,14.46225-0.05576,28.92448-0.078,43.38672c-0.05469,35.55684-0.10609,71.11368-0.15785,106.6705 c-0.0009,0.63907-0.07292,1.29385,0.04424,1.91174c0.0793,0.41815,0.34265,1.00146,0.67719,1.13992 c2.93706,1.2157,5.73628,2.85193,9.01631,3.07147c5.90633,0.39532,11.30489-1.13565,15.91786-4.78125 c4.44414-3.51215,8.64211-7.33791,12.91434-11.06477c3.39432-2.96107,6.92645-5.67589,11.36296-6.90274 c1.2193-0.3372,2.46008-0.59659,3.91075-0.94434c0.10498-48.55067,0.20197-97.06732,0.23914-145.91568 c-18.12132,3.70351-35.84344,7.32546-53.84677,11.00486C183.62279,109.08981,183.62393,109.80174,183.62263,110.51367z" fill="#FFF"/></g><g id="change3_1"><path d="M2.40712,438.05157c0-59.29736,0-118.18066,0-177.3797c1.80017-0.23779,3.42112-0.53271,5.05493-0.65308 c5.544-0.40854,10.79452,0.77856,15.83031,3.05151c5.05854,2.28326,9.65503,5.28662,13.9468,8.79486 c2.90653,2.37589,5.83281,4.73737,8.8675,6.94409c3.31335,2.40933,6.97894,4.13971,10.94327,5.29068 c4.07085,1.18192,8.09894,1.14407,12.00118-0.34314c2.74044-1.04449,5.45506-2.32349,7.90694-3.91916 c3.67657-2.39282,7.12007-5.1452,10.64905-7.76303c5.04039-3.73911,10.37978-6.87225,16.53271-8.44363 c7.98038-2.03821,15.67857-1.54187,22.99975,2.46088c3.1524,1.72351,6.29895,3.45981,9.40923,5.25763 c3.68956,2.13254,7.52266,3.77701,11.75375,4.60007c4.7784,0.92947,9.01248-0.02802,12.96141-2.75339 c2.16829-1.49646,4.33684-3.01132,6.61835-4.32083c3.93805-2.26035,8.23288-3.38278,12.63654-3.65134 c0.19859,0.19003,0.25778,0.24219,0.31151,0.29947c0.05389,0.05743,0.13971,0.11584,0.14706,0.18112 c0.05336,0.47421,0.12796,0.95038,0.12729,1.42581c-0.08153,56.82715-0.16891,113.65424-0.26523,170.48138 c-0.00023,0.13528-0.13635,0.27042-0.22734,0.43979C121.2747,438.05157,61.91969,438.05157,2.40712,438.05157z M80.86254,37.71899 c5.26,0.45908,22.57874,0.30182,24.22836-0.20724c0-11.6307,0-23.2476,0-34.97384c-8.19938,0-16.23611,0-24.40323,0 C80.11305,5.821,80.2947,36.12901,80.86254,37.71899z M134.10094,37.85441c4.06789,0.48216,21.819,0.37988,23.59862-0.13926 c0-11.67064,0-23.36777,0-35.20994c-7.91066,0-15.68773,0-23.59862,0C134.10094,14.49273,134.10094,26.18452,134.10094,37.85441z M206.86917,37.24576c0.25601-6.86111,0.57903-13.721,0.71898-20.5846c0.06479-3.17797,0.03423-6.38237-1.11212-9.45684 c-1.23405-3.30977-3.04158-4.79346-6.59113-4.86447c-4.15051-0.08304-8.30434-0.00806-12.45659,0.01605 c-0.28964,0.00168-0.57841,0.14979-0.8177,0.21599c-0.50664,3.81508-0.31786,33.99804,0.2159,35.68575 c6.58875,0,13.18781,0,19.86865,0C206.76811,37.84617,206.85789,37.54742,206.86917,37.24576z M183.95346,105.70512 c17.1424-3.50605,33.72841-6.8983,50.31441-10.29056c0.02333-0.16158,0.04663-0.32315,0.06993-0.48472 c-13.35321-5.14508-26.70641-10.29017-40.35139-15.54767C190.61617,88.22448,187.3728,96.73389,183.95346,105.70512z M46.33591,2.444c-4.09976,0.11709-6.31834,1.86584-7.37562,5.84315c-0.24433,0.91916-0.37458,1.87764-0.46675,2.82682 c-0.79742,8.21246-0.3015,16.42444,0.05307,24.63536c0.02329,0.53944,0.18526,1.07289,0.30529,1.73341 c4.03189,0,7.98043,0,12.06462,0c0-11.67078,0-23.20226,0-35.04524C49.19393,2.4375,47.76386,2.40321,46.33591,2.444z M100.41055,85.47417c9.37166-0.86389,17.12052-9.60044,16.62753-19.01649c-0.40684-7.76989-5.71801-13.78633-14.42959-13.97486 c-9.67029-0.20928-18.09276,8.46294-18.14346,18.25428C84.24761,80.25877,92.17715,86.23312,100.41055,85.47417z" fill="#AFD4FA"/></g><g id="change4_1"><path d="M237.08496,245.50484c0,59.75267,0,119.19661,0,178.92235 c-17.90529,4.36508-35.70541,8.70447-53.70421,13.09232c0-57.32468,0-114.42117,0-171.7652 c0.85254,0.30539,1.46136,0.45212,2.00403,0.72861c8.83128,4.4993,17.09348,2.811,24.80101-2.59744 c3.5826-2.51389,6.7663-5.5972,10.12358-8.43098c2.50168-2.11165,4.91211-4.3412,7.50926-6.32726 C230.45189,247.11351,233.49036,245.92918,237.08496,245.50484z M78.0693,37.63932c0-11.7349,0-23.33681,0-35.19684 c-8.30032,0.05375-16.45303-0.11521-24.6294,0.10405c0,11.77267,0,23.2431,0,35.09279 C61.77256,37.63932,69.86963,37.63932,78.0693,37.63932z M184.21101,38.14093c0.00049-11.95431,0.00243-23.79599-0.00607-35.64264 c-8.22586,0-16.09091,0-24.07779,0c0,11.87622,0,23.58058,0,35.64264C168.25287,38.14093,176.10884,38.14093,184.21101,38.14093z M131.2249,2.56045c-4.50182-0.4567-21.91423-0.24493-23.51025,0.26866c0,11.64709,0,23.27544,0,35.04211 c7.98032,0,15.78331,0,23.72787,0C131.92484,33.25892,131.72504,4.25143,131.2249,2.56045z M194.80557,77.2706 c13.8241,5.31949,27.32455,10.51446,40.825,15.70941c0.09647-0.13155,0.19289-0.26311,0.28934-0.39466 c-9.18858-16.58312-18.37717-33.16623-27.80882-50.18803C203.56247,54.31912,199.20686,65.73502,194.80557,77.2706z M83.38597,159.92189c-0.18826-0.92691-0.51691-1.8488-0.92876-2.70157c-0.67326-1.3942-1.55676-2.68358-3.32649-2.68756 c-1.40273-0.00319-2.72187,1.54111-3.14546,3.47906c-0.05082,0.23251-0.08837,0.47174-0.09707,0.70912 c-0.23878,6.49089,2.76784,11.36044,7.73721,15.28651C84.07217,169.22066,84.32627,164.55177,83.38597,159.92189z M99.17017,169.87572c1.19614-1.45477,1.36163-2.70007,0.59504-3.42816c-0.76023-0.72209-2.00535-0.53293-3.43365,0.6848 c-2.37514,2.02478-3.62877,4.73499-4.4585,7.73566C94.66674,173.63689,97.25167,172.20898,99.17017,169.87572z M116.29134,85.11473 c0.45851,0.11382,1.13303-0.03608,1.51611-0.32245c2.64225-1.97531,4.7101-4.41901,6.07342-7.66328 c-2.07686-0.82374-3.97358-1.57601-5.63104-2.23342c-2.25871,2.9941-4.38543,5.81322-6.64636,8.81024 C113.14057,84.17997,114.6981,84.71932,116.29134,85.11473z M125.32214,68.58788c-0.03478-0.45963-0.40825-1.1152-0.79919-1.28772 c-1.63671-0.72231-3.33935-1.2952-5.10345-1.95486c-0.2353,2.63302-0.44431,4.9717-0.66945,7.49107 c1.85491,0.7119,3.74779,1.43835,5.81968,2.23352C125.47108,72.70167,125.47767,70.64215,125.32214,68.58788z M124.36103,64.33277 c-1.58843-3.8641-4.26426-6.58634-8.43292-8.14067c0.96568,2.11475,1.74821,3.93876,2.63824,5.70871 c0.2591,0.51524,0.75008,1.04333,1.26537,1.27518c1.35794,0.61094,2.78765,1.06244,4.18877,1.57744 C124.13402,64.61321,124.24751,64.47299,124.36103,64.33277z M109.67428,85.27992c-0.40462-0.12247-0.93643-0.07413-1.33707,0.08246 c-1.82989,0.71519-3.6338,1.49673-5.78204,2.39437c3.98757,1.08849,7.56895,0.84176,11.09856-1.09495 C112.32961,86.19336,111.0172,85.68633,109.67428,85.27992z" fill="#85B4F0"/></g><g id="change1_2"><path d="M0.3286,272.8024c0-33.40977-0.00837-66.81956,0.00315-100.22937c0.00685-19.90164,0.04493-39.80328,0.06892-59.70493 c0.00059-0.47958,0.07662-0.97369-0.01165-1.43639c-0.63936-3.35072,0.6123-6.15808,2.16041-9.05132 c11.00528-20.56736,21.89346-41.19735,32.85671-61.78727c0.81314-1.52717,1.25268-2.98446,1.11737-4.76344 c-0.61238-8.05025-0.96087-16.11239-0.36472-24.18457c0.17785-2.40806,0.57836-4.74623,1.78596-6.89751 c1.33793-2.38343,3.26646-3.95545,6.00372-4.2656c2.21571-0.25106,4.45697-0.3829,6.68702-0.38483 c26.8543-0.02315,53.7086,0.00247,80.56291-0.01476C153.41823,0.06813,175.63805,0.00255,197.85785,0 c1.66066-0.00019,3.33577,0.23862,4.97864,0.51702c2.38625,0.40438,3.98341,1.8804,5.02446,4.02954 c1.13251,2.33795,1.83366,4.81503,1.81662,7.38845c-0.0439,6.62911-0.01756,13.27151-0.44484,19.88109 c-0.32498,5.02785,0.61066,9.39178,3.17679,13.85185c8.68451,15.09376,16.93602,30.43611,25.43922,45.63523 c1.32922,2.37591,1.9922,4.69636,1.95108,7.46328c-0.17699,11.90773-0.1474,23.81866-0.17415,35.72847 c-0.03394,15.10619-0.05504,30.2124-0.07204,45.31862c-0.05341,47.47717-0.10645,94.95436-0.15164,142.43153 c-0.03165,33.24982-0.04742,66.49966-0.07761,99.74948c-0.00478,5.23328,0.05931,4.25174-4.15511,5.27084 c-16.83798,4.07184-33.67818,8.13522-50.49242,12.30325c-2.43488,0.60355-4.82799,0.89822-7.31842,0.89465 c-55.23004-0.07953-110.46011-0.13443-165.69017-0.19287c-2.87736-0.00305-5.75613,0.06189-8.63169-0.00854 c-2.95293-0.07224-3.04044-0.2121-3.03648-3.20749c0.03324-25.09738,0.08668-50.19476,0.10199-75.29214 c0.01811-29.65326,0.00426-59.30655,0.00426-88.95984C0.18043,272.80243,0.25453,272.80243,0.3286,272.8024z M2.40712,438.05157 c59.51257,0,118.86758,0,178.205,0c0.09099-0.16937,0.22711-0.3045,0.22734-0.43979 c0.09631-56.82715,0.1837-113.65424,0.26523-170.48138c0.00067-0.47543-0.07393-0.9516-0.12729-1.42581 c-0.00735-0.06528-0.09317-0.12369-0.14706-0.18112c-0.05373-0.05728-0.11292-0.10944-0.31151-0.29947 c-4.40366,0.26855-8.69849,1.39099-12.63654,3.65134c-2.28151,1.30951-4.45006,2.82437-6.61835,4.32083 c-3.94893,2.72537-8.18301,3.68286-12.96141,2.75339c-4.23109-0.82306-8.06419-2.46753-11.75375-4.60007 c-3.11028-1.79782-6.25682-3.53412-9.40923-5.25763c-7.32117-4.00275-15.01936-4.49908-22.99975-2.46088 c-6.15293,1.57138-11.49232,4.70453-16.53271,8.44363c-3.52898,2.61783-6.97247,5.37021-10.64905,7.76303 c-2.45188,1.59567-5.1665,2.87466-7.90694,3.91916c-3.90224,1.48721-7.93032,1.52505-12.00118,0.34314 c-3.96433-1.15097-7.62992-2.88135-10.94327-5.29068c-3.03469-2.20673-5.96097-4.56821-8.8675-6.94409 c-4.29177-3.50824-8.88826-6.5116-13.9468-8.79486c-5.0358-2.27295-10.28631-3.46005-15.83031-3.05151 c-1.63381,0.12036-3.25476,0.41528-5.05493,0.65308C2.40712,319.87091,2.40712,378.75421,2.40712,438.05157z M181.12289,262.77878 c0.05811-51.39488,0.21826-102.5816,0.22769-153.7328c-5.20987-0.51582-176.40695-0.4236-178.40201,0.0603 c-0.50592,2.39796-0.59479,147.16792-0.05716,149.0977c1.00559-0.10403,2.03468-0.1987,3.06082-0.31879 c3.44417-0.40295,6.86507-0.24643,10.24993,0.48672c7.74415,1.6774,14.42877,5.50903,20.62367,10.28635 c2.72062,2.09805,5.32986,4.33994,8.03172,6.46301c2.9002,2.27884,6.03527,4.16574,9.42642,5.65518 c5.96295,2.61899,11.80426,2.3913,17.55823-0.55991c1.48899-0.76373,2.97026-1.57965,4.33405-2.54297 c3.13179-2.21207,6.22919-4.47754,9.26645-6.81754c3.75269-2.89117,7.69096-5.49646,12.0571-7.31821 c10.30071-4.29788,20.59909-4.86871,30.7434,0.56052c2.9565,1.58231,5.82307,3.33685,8.80991,4.85715 c2.9063,1.47931,5.82878,3.00351,8.8958,4.07349c5.39764,1.88306,10.55019,1.29364,15.11142-2.46634 c0.55333-0.45618,1.17188-0.83325,1.7599-1.24747c3.96599-2.79318,8.26726-4.83936,13.05432-5.75635 C177.51166,263.24527,179.17418,263.06406,181.12289,262.77878z M3.12915,106.45482c59.59348,0,118.79689,0,178.08089,0 c7.56297-19.79123,15.08884-39.47987,22.60809-59.17103c0.74033-1.93876,1.4408-3.89273,2.15627-5.8409 c0.02611-0.07111,0.02301-0.15615,0.01955-0.23404c-0.00357-0.07926-0.00781-0.16632-0.04271-0.23403 c-0.03194-0.06203-0.10515-0.10278-0.33368-0.31093c-0.53528,0-1.24518,0.00366-1.955-0.00054 c-14.94638-0.08842-29.89272-0.19218-44.83916-0.26409c-39.24386-0.18883-78.48786-0.34729-117.73132-0.59174 c-2.03123-0.01266-3.0893,0.56995-4.04981,2.39661c-10.85684,20.647-21.81417,41.24114-32.7404,61.85167 C3.93632,104.74532,3.61478,105.45816,3.12915,106.45482z M237.08496,245.50484c-3.5946,0.42435-6.63307,1.60867-9.26633,3.62239 c-2.59715,1.98605-5.00758,4.21561-7.50926,6.32726c-3.35728,2.83379-6.54099,5.9171-10.12358,8.43098 c-7.70753,5.40845-15.96973,7.09674-24.80101,2.59744c-0.54266-0.27649-1.15149-0.42322-2.00403-0.72861 c0,57.34402,0,114.44052,0,171.7652c17.99879-4.38785,35.79892-8.72723,53.70421-13.09232 C237.08496,364.70145,237.08496,305.25751,237.08496,245.50484z M183.62279,108.09011c0,0.9997,0.00114,1.71163-0.00015,2.42356 c-0.02608,14.46225-0.05576,28.92448-0.078,43.38672c-0.05469,35.55684-0.10609,71.11368-0.15785,106.6705 c-0.0009,0.63907-0.07292,1.29385,0.04424,1.91174c0.0793,0.41815,0.34265,1.00146,0.67719,1.13992 c2.93706,1.2157,5.73628,2.85193,9.01631,3.07147c5.90633,0.39532,11.30489-1.13565,15.91786-4.78125 c4.44414-3.51215,8.64211-7.33791,12.91434-11.06477c3.39432-2.96107,6.92645-5.67589,11.36296-6.90274 c1.2193-0.3372,2.46008-0.59659,3.91075-0.94434c0.10498-48.55067,0.20197-97.06732,0.23914-145.91568 C219.34824,100.78876,201.62611,104.41071,183.62279,108.09011z M80.68767,2.53791 C80.11305,5.821,80.2947,36.12901,80.86254,37.71899c5.26,0.45908,22.57874,0.30182,24.22836-0.20724 c0-11.6307,0-23.2476,0-34.97384C96.89152,2.53791,88.85478,2.53791,80.68767,2.53791z M53.4399,37.63932 c8.33266,0,16.42973,0,24.6294,0c0-11.7349,0-23.33681,0-35.19684c-8.30032,0.05375-16.45303-0.11521-24.6294,0.10405 C53.4399,14.3192,53.4399,25.78964,53.4399,37.63932z M160.12715,38.14093c8.12572,0,15.98169,0,24.08386,0 c0.00049-11.95431,0.00243-23.79599-0.00607-35.64264c-8.22586,0-16.09091,0-24.07779,0 C160.12715,14.37451,160.12715,26.07888,160.12715,38.14093z M131.44252,37.87123c0.48232-4.61231,0.28252-33.6198-0.21762-35.31078 c-4.50182-0.4567-21.91423-0.24493-23.51025,0.26866c0,11.64709,0,23.27544,0,35.04211 C115.69498,37.87123,123.49796,37.87123,131.44252,37.87123z M134.10094,2.50522c0,11.98752,0,23.67931,0,35.3492 c4.06789,0.48216,21.819,0.37988,23.59862-0.13926c0-11.67064,0-23.36777,0-35.20994 C149.78889,2.50522,142.01183,2.50522,134.10094,2.50522z M208.11108,42.39732 c-4.54861,11.92181-8.90422,23.33771-13.30551,34.87328c13.8241,5.31949,27.32455,10.51446,40.825,15.70941 c0.09647-0.13155,0.19289-0.26311,0.28934-0.39466C226.73132,76.00223,217.54274,59.41912,208.11108,42.39732z M206.69516,38.25764 c0.07295-0.41147,0.16273-0.71022,0.17401-1.01188c0.25601-6.86111,0.57903-13.721,0.71898-20.5846 c0.06479-3.17797,0.03423-6.38237-1.11212-9.45684c-1.23405-3.30977-3.04158-4.79346-6.59113-4.86447 c-4.15051-0.08304-8.30434-0.00806-12.45659,0.01605c-0.28964,0.00168-0.57841,0.14979-0.8177,0.21599 c-0.50664,3.81508-0.31786,33.99804,0.2159,35.68575C193.41525,38.25764,200.01431,38.25764,206.69516,38.25764z M193.9864,79.38218 c-3.37024,8.8423-6.6136,17.35172-10.03294,26.32294c17.1424-3.50605,33.72841-6.8983,50.31441-10.29056 c0.02333-0.16158,0.04663-0.32315,0.06993-0.48472C220.98459,89.78477,207.63139,84.63968,193.9864,79.38218z M50.91652,2.4375 c-1.7226,0-3.15266-0.03429-4.58061,0.0065c-4.09976,0.11709-6.31834,1.86584-7.37562,5.84315 c-0.24433,0.91916-0.37458,1.87764-0.46675,2.82682c-0.79742,8.21246-0.3015,16.42444,0.05307,24.63536 c0.02329,0.53944,0.18526,1.07289,0.30529,1.73341c4.03189,0,7.98043,0,12.06462,0 C50.91652,25.81196,50.91652,14.28048,50.91652,2.4375z M18.4983,199.56123c0.61758,0.8887,1.23986,1.77414,1.852,2.6666 c5.0629,7.38158,10.12262,14.76534,15.18755,22.14552c0.49342,0.71896,1.00041,1.72505,1.99013,1.36444 c0.60144-0.21915,0.97494-1.11351,1.40171-1.73808c0.17367-0.25412,0.21541-0.59779,0.32018-0.89966 c2.59338-7.47182,5.18531-14.94417,7.78377-22.4142c0.24954-0.71741,0.53996-1.42061,0.81142-2.1304 c0.69729,2.22797,0.95704,4.41177,1.19283,6.59811c0.91655,8.49867,1.82327,16.9984,2.74254,25.49678 c0.0596,0.55075,0.05126,1.18918,0.33515,1.6118c0.26153,0.38939,0.90007,0.7758,1.32448,0.72888 c0.36021-0.03981,0.82835-0.65866,0.93081-1.09579c0.1401-0.5976,0.01285-1.26959-0.05808-1.90318 c-1.3772-12.30666-2.76233-24.6124-4.14884-36.918c-0.05354-0.47537-0.02649-1.0061-0.23843-1.40369 c-0.19291-0.36182-0.64334-0.77133-1.01131-0.80339c-0.37487-0.03264-0.91394,0.27722-1.15258,0.604 c-0.3163,0.4332-0.41539,1.0267-0.59993,1.55411c-3.08733,8.8226-6.17134,17.6463-9.26313,26.46733 c-0.27807,0.79337-0.60448,1.56976-1.01457,2.62788c-0.68175-0.89601-1.18119-1.50464-1.62948-2.14885 c-5.52341-7.93785-11.0376-15.88211-16.56092-23.82005c-0.40923-0.58813-0.79521-1.22641-1.32524-1.68855 c-0.78193-0.68184-1.83416-0.24182-1.90207,0.79282c-0.05162,0.7868,0.08621,1.59282,0.19629,2.38242 c1.39001,9.97101,2.78944,19.94073,4.18861,29.91048c0.33312,2.37361,0.65145,4.74971,1.02467,7.11705 c0.12143,0.77022,0.60129,1.48026,1.44227,1.16878c0.3936-0.14581,0.56479-0.96719,0.76973-1.50778 c0.07498-0.1978-0.04021-0.4697-0.07499-0.70685c-0.99666-6.79901-1.998-13.59731-2.99014-20.39697 c-0.65423-4.48376-1.29541-8.96942-1.94242-13.45424C18.21965,199.69946,18.35898,199.63034,18.4983,199.56123z M147.62601,212.03041c4.38855-5.48665,8.78877-10.96391,13.17853-16.44958c0.44759-0.5593,0.94934-1.11148,1.23071-1.75262 c0.1447-0.32977-0.00389-1.02493-0.27095-1.23357c-0.27936-0.21823-0.9698-0.21913-1.28387-0.01399 c-0.51437,0.33595-0.8903,0.89885-1.2888,1.39478c-4.35088,5.41454-8.69275,10.83633-13.04361,16.2509 c-0.47833,0.59525-0.99747,1.1577-1.75259,2.02975c-0.18648-0.81873-0.3149-1.24524-0.3781-1.68123 c-0.76723-5.2903-1.51718-10.58307-2.28918-15.87267c-0.26845-1.83939-0.73599-2.51236-1.52007-2.20285 c-1.25134,0.49402-0.80841,1.53238-0.67729,2.46193c1.53812,10.90298,3.07056,21.80682,4.60492,32.71034 c0.15565,1.10619,0.30432,2.2135,0.47514,3.31735c0.08533,0.55164,0.0975,1.16154,0.35701,1.62514 c0.22842,0.40796,0.75514,0.64894,1.1501,0.96365c0.2981-0.40408,0.87817-0.83098,0.84761-1.20847 c-0.17351-2.14386-0.47844-4.27792-0.7663-6.41159c-0.42422-3.14476-0.87164-6.28644-1.35858-9.78412 c1.07944,0.46008,1.80424,0.74706,2.51073,1.07365c5.06862,2.34326,10.13298,4.69568,15.19984,7.04279 c2.4612,1.14012,4.91618,2.29425,7.39307,3.39935c0.65054,0.29031,1.45738,0.54712,1.88504-0.31671 c0.41656-0.84137-0.1757-1.33136-0.86304-1.68356c-0.49669-0.25446-1.00587-0.48483-1.51251-0.71941 c-6.94951-3.21771-13.90079-6.43167-20.84779-9.65477c-0.77399-0.35912-1.52464-0.76854-2.46336-1.24446 C146.71062,213.28603,147.14117,212.63651,147.62601,212.03041z M106.87222,229.97453 c2.44082-10.49889,4.88699-20.99654,7.33057-31.49481c0.12675-0.54457,0.38305-1.10873,0.32154-1.63364 c-0.06378-0.54466-0.30693-1.30647-0.71105-1.51979c-0.68131-0.35962-1.17015,0.2276-1.38683,0.90134 c-0.17099,0.53154-0.30322,1.07671-0.42947,1.62122c-2.61517,11.27834-5.22874,22.55708-7.83797,33.83679 c-0.45629,1.9725-0.3456,2.23033,1.51261,2.7272c4.70364,1.25761,9.41962,2.46909,14.13264,3.69144 c0.38223,0.09912,0.82662,0.28114,1.15768,0.17096c0.38828-0.12927,0.81664-0.47903,0.97355-0.84273 c0.10457-0.24236-0.13905-0.81618-0.39724-0.99348c-0.44218-0.30365-1.00684-0.45412-1.53938-0.5968 c-2.92978-0.78508-5.86752-1.5406-8.79826-2.32217c-1.52599-0.40698-3.04324-0.84668-4.76587-1.32787 C106.62582,231.21706,106.72887,230.59109,106.87222,229.97453z M86.40974,168.87924 c-0.09941,1.75188-0.17329,3.98099-0.36644,6.19971c-0.19798,2.27373-1.10335,2.74832-2.90527,1.48087 c-5.27052-3.70728-8.51504-8.73236-9.49678-15.13116c-0.28006-1.8257-0.12737-3.65227,0.609-5.39493 c0.90833-2.14952,2.43401-3.60997,4.79774-3.77943c2.20953-0.15843,3.76021,1.1696,4.87994,2.9213 c1.26529,1.97932,1.85623,4.22275,2.05368,6.54712C86.17029,163.94333,86.25272,166.17291,86.40974,168.87924z M83.6254,174.00746 c0.44677-4.7868,0.70087-9.45569-0.23943-14.08557c-0.18826-0.92691-0.51691-1.8488-0.92876-2.70157 c-0.67326-1.3942-1.55676-2.68358-3.32649-2.68756c-1.40273-0.00319-2.72187,1.54111-3.14546,3.47906 c-0.05082,0.23251-0.08837,0.47174-0.09707,0.70912C75.64941,165.21184,78.65603,170.08139,83.6254,174.00746z M74.23576,227.20653 c0.45163-0.36395,0.96807-0.67403,1.33159-1.11122c0.23273-0.27985,0.25076-0.74469,0.3464-1.13121 c2.79716-11.3015,5.59366-22.60315,8.38193-33.90685c0.1327-0.53786,0.3156-1.11282,0.23934-1.63614 c-0.05504-0.37769-0.45757-0.91696-0.78632-0.9836c-0.33759-0.06837-0.91254,0.25526-1.13286,0.57829 c-0.29897,0.43843-0.38459,1.03325-0.51855,1.57167c-2.79114,11.22098-5.57662,22.44334-8.36073,33.66606 c-0.1151,0.46384-0.20594,0.93367-0.38597,1.7569C73.55671,226.28899,73.89625,226.74776,74.23576,227.20653z M102.46595,167.50293 c-0.005,1.79765-0.88953,3.20966-2.07271,4.4324c-2.64626,2.73476-5.90522,4.55548-9.33385,6.11295 c-0.74825,0.33986-1.49183,0.35091-1.92001-0.32069c-0.29048-0.45561-0.43597-1.23849-0.2509-1.72444 c1.2164-3.194,2.32493-6.45746,4.59251-9.12529c1.26362-1.48669,2.69495-2.72751,4.72491-3.00063 C100.66771,163.54601,102.47145,165.09137,102.46595,167.50293z M91.87305,174.86801 c2.79369-1.23112,5.37862-2.65903,7.29711-4.99229c1.19614-1.45477,1.36163-2.70007,0.59504-3.42816 c-0.76023-0.72209-2.00535-0.53293-3.43365,0.6848C93.95641,169.15714,92.70278,171.86734,91.87305,174.86801z M127.67544,70.0771 c0.02113,12.12048-11.05074,22.15534-23.03157,20.35259c-5.23995-0.78844-10.4044-2.63246-15.00481-5.38118 c-5.90713-3.52947-8.51577-10.73495-7.07555-18.00314c1.93761-9.77826,11.31803-17.91809,22.18738-16.65887 c1.25762,0.14568,2.51366,0.45037,3.72379,0.82999c2.43546,0.76397,4.83032,1.65613,7.25692,2.44966 C123.15178,56.09264,127.66182,62.27464,127.67544,70.0771z M84.46503,70.7371c-0.21741,9.52168,7.71212,15.49603,15.94552,14.73707 c9.37166-0.86389,17.12052-9.60044,16.62753-19.01649c-0.40684-7.76989-5.71801-13.78633-14.42959-13.97486 C92.93819,52.27354,84.51572,60.94576,84.46503,70.7371z M111.60345,83.70583c1.53712,0.47414,3.09464,1.0135,4.68788,1.40891 c0.45851,0.11382,1.13303-0.03608,1.51611-0.32245c2.64225-1.97531,4.7101-4.41901,6.07342-7.66328 c-2.07686-0.82374-3.97358-1.57601-5.63104-2.23342C115.9911,77.88969,113.86439,80.70881,111.60345,83.70583z M124.56973,75.06989 c0.90136-2.36823,0.90794-4.42774,0.75242-6.48201c-0.03478-0.45963-0.40825-1.1152-0.79919-1.28772 c-1.63671-0.72231-3.33935-1.2952-5.10345-1.95486c-0.2353,2.63302-0.44431,4.9717-0.66945,7.49107 C120.60496,73.54827,122.49783,74.27473,124.56973,75.06989z M124.02049,64.75343c0.11353-0.14021,0.22702-0.28043,0.34054-0.42065 c-1.58843-3.8641-4.26426-6.58634-8.43292-8.14067c0.96568,2.11475,1.74821,3.93876,2.63824,5.70871 c0.2591,0.51524,0.75008,1.04333,1.26537,1.27518C121.18967,63.78692,122.61938,64.23842,124.02049,64.75343z M113.65374,86.6618 c-1.32413-0.46844-2.63654-0.97548-3.97946-1.38188c-0.40462-0.12247-0.93643-0.07413-1.33707,0.08246 c-1.82989,0.71519-3.6338,1.49673-5.78204,2.39437C106.54275,88.84524,110.12412,88.59851,113.65374,86.6618z M45.49672,46.89476 c-0.37833-0.11042-0.98619-0.04821-1.2501,0.20039c-0.44731,0.42144-0.73068,1.03133-1.03457,1.58842 c-8.52714,15.63264-17.04836,31.26851-25.56943,46.90446c-0.22911,0.42043-0.59781,0.83594-0.631,1.2742 c-0.04263,0.56343,0.18849,1.14757,0.30169,1.7228c0.53328-0.20744,1.16058-0.30406,1.57297-0.65398 c0.40039-0.33971,0.5884-0.93495,0.85565-1.4256c2.78825-5.11906,5.57182-10.24068,8.36028-15.35966 c5.69146-10.44828,11.38643-20.89466,17.07461-31.34476c0.34117-0.62675,0.63543-1.27903,0.99115-1.99977 C45.93939,47.47079,45.77815,46.97689,45.49672,46.89476z" fill="inherit"/></g></svg>