<?xml version="1.0" encoding="UTF-8" standalone="no"?><svg xmlns="http://www.w3.org/2000/svg" xmlns:xlink="http://www.w3.org/1999/xlink" fill="#85b4f0" height="30" preserveAspectRatio="xMidYMid meet" version="1" viewBox="1.0 1.0 30.0 30.0" width="30" zoomAndPan="magnify"><g id="change1_1"><path d="M16,1C7.72998,1,1,7.72998,1,16c0,8.26996,6.72998,15,15,15s15-6.73004,15-15C31,7.72998,24.27002,1,16,1z M23.90997,9.39996L17.31,24.84998c-0.15997,0.37-0.52002,0.60004-0.91998,0.60004h-0.04999 c-0.41003-0.02002-0.78003-0.29004-0.90002-0.69l-1.97003-6.23004L7.23999,16.56c-0.39996-0.12-0.66998-0.48999-0.69-0.90002 c-0.01996-0.41998,0.22003-0.81,0.60004-0.96997l15.44995-6.60004c0.37-0.15997,0.81-0.07001,1.10004,0.21002 C23.97998,8.58997,24.07001,9.02997,23.90997,9.39996z" fill="inherit"/><path d="M13.98999,16.59998l1.42999-1.44c0.40002-0.39001,1.03003-0.39001,1.42004,0c0.38995,0.39001,0.38995,1.02002,0,1.41998 l-1.44,1.43005l1.13,3.56995l4.56-10.66998l-10.67004,4.56L13.98999,16.59998z" fill="inherit"/></g></svg>