<?xml version="1.0" encoding="UTF-8"?><svg xmlns="http://www.w3.org/2000/svg" xmlns:xlink="http://www.w3.org/1999/xlink" height="131.3" preserveAspectRatio="xMidYMid meet" version="1.0" viewBox="-1.6 0.4 110.3 131.3" width="110.3" zoomAndPan="magnify"><g><g id="change1_1"><path d="M 42.035156 9.351562 C 41.960938 28.578125 39.644531 47.871094 40.082031 67.109375 C 40.296875 76.597656 40.917969 86.054688 41.070312 95.554688 C 41.097656 97.226562 40.753906 127.8125 41.257812 128.515625 C 42.378906 130.066406 52.964844 131.65625 54.042969 129.910156 C 56.277344 126.289062 58.921875 81.660156 59.441406 75.15625 C 60.808594 58.015625 62.039062 40.851562 63.566406 23.730469 C 64.152344 17.117188 66.074219 9.519531 65.789062 2.785156 C 58.640625 4.316406 46.019531 7.445312 42.035156 9.351562 Z M 42.035156 9.351562" fill="#583002"/></g><g id="change2_1"><path d="M 39.683594 6.925781 C 39.605469 26.152344 37.289062 45.445312 37.730469 64.683594 C 37.945312 74.171875 38.566406 83.628906 38.71875 93.128906 C 38.746094 94.800781 38.402344 125.386719 38.902344 126.085938 C 40.023438 127.640625 50.613281 129.230469 51.6875 127.484375 C 53.921875 123.863281 56.570312 79.234375 57.085938 72.730469 C 58.453125 55.589844 59.6875 38.425781 61.210938 21.304688 C 61.800781 14.691406 63.722656 7.09375 63.433594 0.355469 C 56.285156 1.890625 43.667969 5.019531 39.679688 6.925781 Z M 39.683594 6.925781" fill="#6a3a03"/></g><g id="change1_2"><path d="M 2.777344 15.476562 C 2.75 22.402344 2.945312 29.316406 2.1875 36.210938 C 1.515625 42.324219 -0.464844 48.175781 7.140625 48.160156 C 8.113281 48.160156 5.394531 49.171875 4.855469 49.980469 C 4.484375 50.535156 4.644531 51.425781 4.714844 52.027344 C 5.058594 54.914062 3.800781 74.234375 4.9375 75.253906 C 6.832031 76.953125 13.753906 76.578125 15.984375 77.039062 C 32.453125 80.429688 50.089844 80.378906 66.875 80.140625 C 74.058594 80.039062 81.496094 80.789062 88.644531 80.027344 C 91.425781 79.730469 94.148438 79.507812 96.945312 79.628906 C 99.539062 79.742188 101.640625 79.921875 101.640625 79.917969 C 101.640625 74.480469 105.785156 62.558594 106.417969 55.496094 C 106.742188 51.894531 98.144531 53.546875 99.019531 50.914062 C 100.570312 46.234375 106.289062 50.617188 107.066406 42.011719 C 107.261719 39.804688 107.769531 37.238281 107.097656 35.03125 C 106.835938 34.175781 95.269531 37.140625 95.269531 36.160156 C 95.265625 35.007812 104.464844 30.53125 104.882812 29.023438 C 105.914062 25.292969 106.253906 21.425781 106.996094 17.648438 C 108.636719 9.316406 104.457031 10.394531 97.078125 11.21875 C 91.566406 11.832031 85.847656 11.730469 80.300781 11.972656 C 74.066406 12.246094 67.859375 12.980469 61.636719 13.425781 C 50.128906 14.25 38.292969 15.6875 26.746094 15.296875 C 22.421875 15.152344 6.898438 13.523438 2.777344 15.480469 Z M 2.777344 15.476562" fill="#583002"/></g><g id="change2_2"><path d="M 0.160156 13.460938 C 0.898438 24.246094 -1.617188 50.097656 4.519531 46.144531 C 5.496094 46.144531 2.773438 47.152344 2.234375 47.964844 C 1.867188 48.515625 2.023438 49.410156 2.09375 50.011719 C 2.4375 52.898438 1.183594 72.21875 2.316406 73.238281 C 35.15625 78.023438 67.375 76.621094 94.328125 77.613281 C 96.921875 77.730469 99.019531 77.902344 99.019531 77.902344 C 99.019531 72.464844 103.164062 60.542969 103.800781 53.480469 C 104.125 49.878906 95.527344 51.53125 96.398438 48.898438 C 97.949219 44.222656 103.671875 48.601562 104.445312 39.996094 C 104.644531 37.789062 105.152344 35.222656 104.476562 33.015625 C 104.214844 32.164062 92.652344 35.125 92.648438 34.144531 C 92.648438 32.992188 101.847656 28.515625 102.261719 27.007812 C 103.292969 23.277344 103.632812 19.410156 104.378906 15.632812 C 106.015625 7.300781 101.835938 8.382812 94.457031 9.203125 C 62.339844 11.261719 27.160156 13.273438 0.15625 13.460938 Z M 0.160156 13.460938" fill="#6a3a03"/></g><g id="change3_1"><path d="M 100.359375 8.652344 C 98.757812 8.652344 96.765625 8.945312 94.460938 9.203125 C 88.945312 9.816406 83.230469 9.714844 77.683594 9.957031 C 71.449219 10.230469 65.242188 10.960938 59.019531 11.410156 C 47.511719 12.234375 35.675781 13.671875 24.128906 13.28125 C 19.804688 13.136719 4.28125 11.507812 0.160156 13.460938 C 0.160156 14.269531 0.15625 15.074219 0.15625 15.882812 C 0.289062 15.941406 0.425781 16.003906 0.566406 16.066406 C 17.78125 15.332031 35.164062 18.253906 52.335938 16.445312 C 66.878906 14.910156 81.308594 11.972656 95.976562 11.753906 C 106.238281 11.605469 93.996094 27.339844 100.296875 28.746094 C 100.324219 28.746094 100.335938 28.746094 100.355469 28.746094 C 101.398438 28.03125 102.152344 27.40625 102.265625 26.996094 C 103.296875 23.269531 103.636719 19.398438 104.378906 15.625 C 105.507812 9.894531 103.882812 8.617188 100.359375 8.644531 Z M 100.359375 8.652344" fill="#794103"/></g><g id="change4_1"><path d="M 3.382812 46.28125 C 36.902344 45.09375 60.675781 50.742188 77.269531 47.4375 C 79.207031 46.945312 98.472656 46.253906 99.023438 48.714844 C 78.492188 52.816406 53.570312 46.882812 34.679688 48.109375 C 28.824219 48.503906 23.105469 50.09375 17.195312 49.546875 C 15.085938 49.351562 0.785156 51.277344 3.382812 46.28125 Z M 3.382812 46.28125" fill="#7a4203"/></g><g id="change5_1"><path d="M 3.265625 44.628906 C 22.355469 45.894531 38.121094 44.066406 56.886719 45.410156 C 62.628906 45.824219 76.082031 42.105469 78.933594 47.105469 C 79.292969 47.738281 95.441406 46.589844 98.523438 46.855469 C 89.71875 44 86.59375 43.996094 79.457031 46.097656 C 65.144531 49.183594 47.875 47.59375 34.824219 47.074219 C 28.96875 46.839844 22.984375 47.464844 17.074219 47.074219 C 14.964844 46.929688 0.667969 48.371094 3.265625 44.644531 Z M 3.265625 44.628906" fill="#552e02"/></g><g id="change6_1"><path d="M 68.234375 26.867188 C 49.121094 25.726562 30.023438 24.027344 10.855469 23.59375 L 10.855469 24.363281 C 29.992188 24.792969 49.078125 26.492188 68.203125 27.632812 Z M 68.234375 26.867188" fill="#5a3103"/></g><g id="change6_2"><path d="M 100.875 36.683594 C 71.15625 34.402344 78.332031 34.578125 49.117188 34.152344 L 49.117188 34.917969 C 78.332031 35.34375 71.101562 35.171875 100.828125 37.449219 Z M 100.875 36.683594" fill="#5a3103"/></g><g id="change6_3"><path d="M 52.355469 70.878906 C 35.742188 70.195312 49.113281 70.828125 12.445312 67.421875 L 12.375 68.1875 C 49.035156 71.59375 35.714844 70.960938 52.324219 71.644531 Z M 52.355469 70.878906" fill="#5a3103"/></g><g id="change6_4"><path d="M 94.960938 63.90625 C 65.539062 62.519531 76.414062 63.132812 62.347656 62.320312 L 62.300781 63.085938 C 76.367188 63.898438 65.503906 63.285156 94.925781 64.671875 Z M 94.960938 63.90625" fill="#5a3103"/></g><g id="change6_5"><path d="M 44.835938 87.582031 L 44.292969 87.667969 C 45.632812 96.816406 45.820312 99.5625 46.105469 101.441406 C 46.394531 103.320312 46.773438 104.289062 48.480469 109.808594 L 49.007812 109.644531 C 47.296875 104.121094 46.929688 103.191406 46.648438 101.355469 C 46.371094 99.519531 46.175781 96.742188 44.835938 87.585938 Z M 44.835938 87.582031" fill="#5a3103"/></g><g id="change6_6"><path d="M 53.871094 86.28125 L 53.324219 86.230469 C 50.074219 120.253906 51.613281 106.75 49.214844 126.757812 L 49.761719 126.824219 C 52.15625 106.816406 50.621094 120.300781 53.871094 86.28125 Z M 53.871094 86.28125" fill="#5a3103"/></g><g id="change6_7"><path d="M 43.253906 104.441406 L 42.707031 104.441406 C 42.734375 109.828125 42.738281 115.214844 42.753906 120.601562 L 42.757812 120.601562 C 42.785156 120.804688 42.8125 121.003906 42.839844 121.203125 L 43.386719 121.128906 C 43.355469 120.933594 43.332031 120.742188 43.304688 120.546875 C 43.304688 115.167969 43.273438 109.785156 43.253906 104.40625 Z M 43.253906 104.441406" fill="#5a3103"/></g><g id="change7_1"><path d="M 68.660156 27.605469 C 49.550781 26.464844 30.453125 24.765625 11.28125 24.332031 L 11.253906 25.097656 C 30.390625 25.53125 49.476562 27.230469 68.605469 28.371094 Z M 68.660156 27.605469" fill="#8c4d04"/></g><g id="change7_2"><path d="M 101.304688 37.417969 C 71.582031 35.140625 78.757812 35.3125 49.546875 34.886719 L 49.546875 35.65625 C 78.761719 36.082031 71.527344 35.90625 101.257812 38.183594 Z M 101.304688 37.417969" fill="#8c4d04"/></g><g id="change7_3"><path d="M 52.726562 71.769531 C 36.113281 71.085938 49.484375 71.722656 12.816406 68.3125 L 12.746094 69.078125 C 49.40625 72.484375 36.085938 71.851562 52.695312 72.539062 Z M 52.726562 71.769531" fill="#8c4d04"/></g><g id="change7_4"><path d="M 95.179688 64.742188 C 65.757812 63.355469 76.632812 63.96875 62.5625 63.152344 L 62.515625 63.921875 C 76.585938 64.734375 65.722656 64.121094 95.140625 65.507812 Z M 95.179688 64.742188" fill="#8c4d04"/></g><g id="change8_1"><path d="M 45.371094 87.863281 L 44.828125 87.945312 C 46.167969 97.09375 46.355469 99.84375 46.640625 101.722656 C 46.929688 103.601562 47.308594 104.570312 49.015625 110.089844 L 49.542969 109.929688 C 47.832031 104.402344 47.464844 103.472656 47.1875 101.640625 C 46.90625 99.804688 46.710938 97.023438 45.371094 87.867188 Z M 45.371094 87.863281" fill="#8e4e05"/></g><g id="change8_2"><path d="M 54.40625 86.5625 L 53.859375 86.511719 C 50.609375 120.535156 52.148438 107.03125 49.753906 127.039062 L 50.296875 127.105469 C 52.691406 107.097656 51.15625 120.585938 54.40625 86.5625 Z M 54.40625 86.5625" fill="#8e4e05"/></g><g id="change8_3"><path d="M 43.792969 104.722656 L 43.242188 104.722656 C 43.242188 110.109375 43.273438 115.496094 43.285156 120.882812 L 43.289062 120.882812 C 43.316406 121.082031 43.34375 121.285156 43.371094 121.484375 L 43.917969 121.410156 C 43.886719 121.214844 43.863281 121.019531 43.832031 120.824219 C 43.804688 115.445312 43.804688 110.066406 43.785156 104.6875 Z M 43.792969 104.722656" fill="#8e4e05"/></g></g></svg>